<?xml version="1.0" encoding="UTF-8" standalone="no"?>
<!-- Created with Inkscape (http://www.inkscape.org/) -->

<svg
   width="210mm"
   height="297mm"
   viewBox="0 0 210 297"
   version="1.1"
   id="svg14"
   inkscape:version="1.2.2 (732a01da63, 2022-12-09)"
   sodipodi:docname="BrackeysGameJam25-1-Sprites.svg"
   xmlns:inkscape="http://www.inkscape.org/namespaces/inkscape"
   xmlns:sodipodi="http://sodipodi.sourceforge.net/DTD/sodipodi-0.dtd"
   xmlns="http://www.w3.org/2000/svg"
   xmlns:svg="http://www.w3.org/2000/svg">
  <sodipodi:namedview
     id="namedview16"
     pagecolor="#ffffff"
     bordercolor="#666666"
     borderopacity="1.0"
     inkscape:pageshadow="2"
     inkscape:pageopacity="0.0"
     inkscape:pagecheckerboard="0"
     inkscape:document-units="mm"
     showgrid="false"
     showborder="false"
     inkscape:showpageshadow="2"
     inkscape:deskcolor="#d1d1d1"
     inkscape:zoom="0.5946522"
     inkscape:cx="-461.61437"
     inkscape:cy="581.01189"
     inkscape:window-width="2560"
     inkscape:window-height="1369"
     inkscape:window-x="1072"
     inkscape:window-y="270"
     inkscape:window-maximized="1"
     inkscape:current-layer="layer1" />
  <defs
     id="defs11">
    <filter
       inkscape:collect="always"
       style="color-interpolation-filters:sRGB"
       id="filter3202"
       x="-0.086524234"
       y="-0.083419346"
       width="1.1731321"
       height="1.1668747">
      <feGaussianBlur
         inkscape:collect="always"
         stdDeviation="1.8910795"
         id="feGaussianBlur3204" />
    </filter>
    <filter
       inkscape:collect="always"
       style="color-interpolation-filters:sRGB"
       id="filter3208"
       x="-0.14566684"
       y="-0.15242431"
       width="1.2915147"
       height="1.3049661">
      <feGaussianBlur
         inkscape:collect="always"
         stdDeviation="2.7051318"
         id="feGaussianBlur3210" />
    </filter>
    <filter
       inkscape:collect="always"
       style="color-interpolation-filters:sRGB"
       id="filter3214"
       x="-0.26991263"
       y="-0.28800676"
       width="1.5398407"
       height="1.5760875">
      <feGaussianBlur
         inkscape:collect="always"
         stdDeviation="3.4734952"
         id="feGaussianBlur3216" />
    </filter>
    <filter
       inkscape:collect="always"
       style="color-interpolation-filters:sRGB"
       id="filter3250"
       x="-0.087220647"
       y="-0.081391529"
       width="1.1743813"
       height="1.1627193">
      <feGaussianBlur
         inkscape:collect="always"
         stdDeviation="1.8910795"
         id="feGaussianBlur3252" />
    </filter>
    <filter
       inkscape:collect="always"
       style="color-interpolation-filters:sRGB"
       id="filter3256"
       x="-0.092669751"
       y="-0.089341769"
       width="1.1854232"
       height="1.1787195">
      <feGaussianBlur
         inkscape:collect="always"
         stdDeviation="2.0400721"
         id="feGaussianBlur3254" />
    </filter>
  </defs>
  <g
     inkscape:label="Ebene 1"
     inkscape:groupmode="layer"
     id="layer1">
    <path
       style="opacity:0.12765957;fill:#000000;fill-opacity:1;stroke:#000000;stroke-width:1;stroke-linecap:butt;stroke-linejoin:miter;stroke-dasharray:none;stroke-opacity:1;filter:url(#filter3250)"
       d="m -225.33647,75.641817 c 0,0 -0.51257,14.638204 -6.76193,16.752294 -6.24937,2.114095 -10.18163,-1.591569 -10.18163,-1.591569 0,0 -1.98901,7.423104 -8.9893,6.683954 -7.00029,-0.73913 -6.94274,-9.437495 -6.94274,-9.437495 0,0 -11.41291,3.003679 -15.50922,-1.503669 -4.0963,-4.507331 1.2449,-15.957411 1.2449,-15.957411 0,0 -6.12247,-5.429113 -5.12457,-11.981205 0.99791,-6.552099 10.73813,-10.382834 10.73813,-10.382834 0,0 -1.26164,-9.430701 3.22031,-12.018358 4.48197,-2.587664 16.00137,3.908695 16.00137,3.908695 0,0 7.68868,-3.243866 15.4399,0.348506 7.7512,3.592375 1.46966,12.89617 1.46966,12.89617 0,0 8.88099,5.031669 10.54688,11.539814 1.66588,6.508132 -5.15176,10.743108 -5.15176,10.743108 z"
       id="path3248" />
    <path
       style="opacity:0.12765957;mix-blend-mode:normal;fill:#000000;fill-opacity:1;stroke:#000000;stroke-width:1;stroke-linecap:butt;stroke-linejoin:miter;stroke-dasharray:none;stroke-opacity:1;filter:url(#filter3256)"
       d="m -194.01755,64.286507 c 0,0 -3.29355,-14.272081 2.19572,-17.931589 5.48926,-3.659508 10.24663,-1.097854 10.24663,-1.097854 0,0 0,-7.684966 6.95307,-8.782818 6.95306,-1.097852 9.14877,7.319015 9.14877,7.319015 0,0 10.24662,-5.855212 15.36994,-2.561655 5.1233,3.293556 2.9276,15.735884 2.9276,15.735884 0,0 7.31901,3.659508 8.05092,10.24662 0.7319,6.587117 -7.68497,12.808283 -7.68497,12.808283 0,0 3.65951,8.782815 0,12.44232 -3.65951,3.659511 -16.46779,0.36595 -16.46779,0.36595 0,0 -6.58711,5.123311 -15.00399,3.659511 -8.41687,-1.463811 -4.75735,-12.076371 -4.75735,-12.076371 0,0 -9.88068,-2.561658 -13.17424,-8.416872 -3.29355,-5.855212 2.1957,-11.710424 2.19569,-11.710424 z"
       id="path3238"
       transform="rotate(150,-168.17027,66.565425)" />
    <path
       style="opacity:0.12765957;mix-blend-mode:normal;fill:#000000;fill-opacity:1;stroke:#000000;stroke-width:1;stroke-linecap:butt;stroke-linejoin:miter;stroke-dasharray:none;stroke-opacity:1;filter:url(#filter3202)"
       d="m -110.81415,64.286507 c 0,0 -3.29355,-14.272081 2.19572,-17.931589 5.48926,-3.659508 10.246626,-1.097854 10.246626,-1.097854 0,0 0,-7.684966 6.953075,-8.782818 6.953058,-1.097852 9.148769,7.319015 9.148769,7.319015 0,0 10.246618,-5.855212 15.369933,-2.561655 5.123307,3.293556 2.927606,15.735884 2.927606,15.735884 0,0 7.319011,3.659508 8.050916,10.24662 0.731902,6.587117 -7.68497,12.808283 -7.68497,12.808283 0,0 3.65951,8.782815 0,12.44232 -3.659509,3.659511 -16.467783,0.36595 -16.467783,0.36595 0,0 -6.587115,5.123311 -15.003996,3.659511 -8.416866,-1.463811 -4.757347,-12.076371 -4.757347,-12.076371 0,0 -9.880679,-2.561658 -13.174239,-8.416872 -3.29355,-5.855212 2.1957,-11.710424 2.19569,-11.710424 z"
       id="path3196" />
    <path
       style="fill:#abd642;fill-opacity:1;stroke:#000000;stroke-width:1;stroke-linecap:butt;stroke-linejoin:miter;stroke-dasharray:none;stroke-opacity:1"
       d="m -118.91,72.247794 c 0,0 -3.29355,-14.272081 2.19571,-17.931589 5.48926,-3.659508 10.24662,-1.097854 10.24662,-1.097854 0,0 0,-7.684966 6.953075,-8.782818 6.953058,-1.097852 9.148769,7.319015 9.148769,7.319015 0,0 10.246618,-5.855212 15.369933,-2.561655 5.123307,3.293556 2.927606,15.735884 2.927606,15.735884 0,0 7.319011,3.659508 8.050916,10.24662 0.731902,6.587117 -7.68497,12.808283 -7.68497,12.808283 0,0 3.65951,8.782815 0,12.44232 -3.659509,3.65951 -16.467783,0.36595 -16.467783,0.36595 0,0 -6.587115,5.12331 -15.003996,3.65951 -8.41686,-1.46381 -4.75735,-12.07637 -4.75735,-12.07637 0,0 -9.88067,-2.561658 -13.17423,-8.416872 -3.29355,-5.855212 2.1957,-11.710424 2.1957,-11.710424 z"
       id="path244" />
    <path
       style="fill:#000000;fill-opacity:1;stroke:#000000;stroke-width:1.12064;stroke-linecap:butt;stroke-linejoin:miter;stroke-dasharray:none;stroke-opacity:1;filter:url(#filter3208);opacity:0.34751773"
       d="m -97.381792,55.770068 c 0,0 10.267946,-5.458331 14.202215,-2.000784 3.934267,3.457545 2.947374,7.632154 2.947374,7.632154 0,0 5.8933,-1.579108 8.163916,3.527339 2.270613,5.106448 -3.732779,8.519748 -3.732779,8.519748 0,0 6.595605,6.654604 5.12264,11.260237 -1.472961,4.60562 -11.465673,5.478474 -11.465673,5.478474 0,0 -1.302423,6.364614 -6.203432,8.279405 -4.901012,1.914779 -11.401278,-3.261465 -11.401278,-3.261465 0,0 -5.983241,4.61103 -9.541531,2.556647 -3.55829,-2.054379 -3.66443,-12.553303 -3.66443,-12.553303 0,0 -5.28238,-3.998666 -5.88935,-10.754021 -0.60696,-6.755347 8.28337,-6.12968 8.28337,-6.12968 0,0 -0.0658,-8.103471 3.74753,-11.832305 3.81338,-3.728825 9.431437,-0.72245 9.431437,-0.72245 z"
       id="path3206" />
    <path
       style="fill:#abd642;fill-opacity:1;stroke:#000000;stroke-width:1.12064;stroke-linecap:butt;stroke-linejoin:miter;stroke-dasharray:none;stroke-opacity:1"
       d="m -97.381792,55.770068 c 0,0 10.267946,-5.458331 14.202215,-2.000784 3.934267,3.457545 2.947374,7.632154 2.947374,7.632154 0,0 5.8933,-1.579108 8.163916,3.527339 2.270613,5.106448 -3.732779,8.519748 -3.732779,8.519748 0,0 6.595605,6.654604 5.12264,11.260237 -1.472961,4.60562 -11.465673,5.478474 -11.465673,5.478474 0,0 -1.302423,6.364614 -6.203432,8.279405 -4.901012,1.914779 -11.401278,-3.261465 -11.401278,-3.261465 0,0 -5.983241,4.61103 -9.541531,2.556647 -3.55829,-2.054379 -3.66443,-12.553303 -3.66443,-12.553303 0,0 -5.28238,-3.998666 -5.88935,-10.754021 -0.60696,-6.755347 8.28337,-6.12968 8.28337,-6.12968 0,0 -0.0658,-8.103471 3.74753,-11.832305 3.81338,-3.728825 9.431437,-0.72245 9.431437,-0.72245 z"
       id="path2360" />
    <path
       style="fill:#000000;fill-opacity:1;stroke:#000000;stroke-width:1;stroke-linecap:butt;stroke-linejoin:miter;stroke-dasharray:none;stroke-opacity:1;filter:url(#filter3214);opacity:0.43498818"
       d="m -84.74165,68.351076 c 0,0 6.301695,3.938557 5.645269,7.220689 -0.656425,3.282131 -3.282133,4.069844 -3.282133,4.069844 0,0 2.75699,2.756988 0.656427,5.645264 -2.100563,2.888274 -5.907836,0.656428 -5.907836,0.656428 0,0 -1.575421,5.776547 -4.594985,6.432974 -3.019555,0.656426 -6.695547,-4.594983 -6.695547,-4.594983 0,0 -3.938555,1.31285 -6.564255,-0.787711 -2.62571,-2.100566 -1.83799,-7.351977 -1.83799,-7.351977 0,0 -4.4637,-1.837989 -4.4637,-4.463697 0,-2.625704 5.77655,-6.039115 5.77655,-6.039115 0,0 0.52514,-4.201127 4.06984,-6.695549 3.544702,-2.494417 6.039121,2.625708 6.039121,2.625708 0,0 4.463699,-2.625702 7.745832,-1.70671 3.282129,0.918999 3.413412,4.988839 3.413412,4.988839 z"
       id="path3212" />
    <path
       style="fill:#abd642;fill-opacity:1;stroke:#000000;stroke-width:1;stroke-linecap:butt;stroke-linejoin:miter;stroke-dasharray:none;stroke-opacity:1"
       d="m -84.74165,68.351076 c 0,0 6.301695,3.938557 5.645269,7.220689 -0.656425,3.282131 -3.282133,4.069844 -3.282133,4.069844 0,0 2.75699,2.756988 0.656427,5.645264 -2.100563,2.888274 -5.907836,0.656428 -5.907836,0.656428 0,0 -1.575421,5.776547 -4.594985,6.432974 -3.019555,0.656426 -6.695547,-4.594983 -6.695547,-4.594983 0,0 -3.938555,1.31285 -6.564255,-0.787711 -2.62571,-2.100566 -1.83799,-7.351977 -1.83799,-7.351977 0,0 -4.4637,-1.837989 -4.4637,-4.463697 0,-2.625704 5.77655,-6.039115 5.77655,-6.039115 0,0 0.52514,-4.201127 4.06984,-6.695549 3.544702,-2.494417 6.039121,2.625708 6.039121,2.625708 0,0 4.463699,-2.625702 7.745832,-1.70671 3.282129,0.918999 3.413412,4.988839 3.413412,4.988839 z"
       id="path2362" />
    <path
       style="fill:#abd642;fill-opacity:1;stroke:#000000;stroke-width:1;stroke-linecap:butt;stroke-linejoin:miter;stroke-dasharray:none;stroke-opacity:1"
       d="m -175.07742,49.912168 c 0,0 14.27208,-3.29355 17.93159,2.19571 3.65951,5.48926 1.09786,10.24662 1.09786,10.24662 0,0 7.68496,0 8.78281,6.95307 1.09786,6.95306 -7.31901,9.14877 -7.31901,9.14877 0,0 5.85521,10.24662 2.56165,15.36994 -3.29355,5.123296 -15.73588,2.9276 -15.73588,2.9276 0,0 -3.65951,7.319002 -10.24662,8.050912 -6.58712,0.7319 -12.80828,-7.684962 -12.80828,-7.684962 0,0 -8.78282,3.659502 -12.44232,0 -3.65951,-3.65951 -0.36595,-16.46778 -0.36595,-16.46778 0,0 -5.12331,-6.58712 -3.65951,-15.004 1.46381,-8.41686 12.07637,-4.75735 12.07637,-4.75735 0,0 2.56165,-9.88067 8.41687,-13.17423 5.85521,-3.29355 11.71042,2.1957 11.71042,2.1957 z"
       id="path3218" />
    <path
       style="opacity:0.347518;fill:#000000;fill-opacity:1;stroke:#000000;stroke-width:1.12064;stroke-linecap:butt;stroke-linejoin:miter;stroke-dasharray:none;stroke-opacity:1;filter:url(#filter3208)"
       d="m -192.39662,57.107401 c 0,0 10.26794,-5.458331 14.20221,-2.000784 3.93427,3.457545 2.94738,7.632154 2.94738,7.632154 0,0 5.8933,-1.579108 8.16391,3.527339 2.27062,5.106448 -3.73278,8.519748 -3.73278,8.519748 0,0 6.59561,6.654604 5.12264,11.260237 -1.47296,4.60562 -11.46567,5.478474 -11.46567,5.478474 0,0 -1.30242,6.364614 -6.20343,8.279405 -4.90101,1.914776 -11.40128,-3.261465 -11.40128,-3.261465 0,0 -5.98324,4.611031 -9.54153,2.556647 -3.55829,-2.054379 -3.66443,-12.553303 -3.66443,-12.553303 0,0 -5.28238,-3.998666 -5.88935,-10.754021 -0.60696,-6.755347 8.28337,-6.12968 8.28337,-6.12968 0,0 -0.0658,-8.103471 3.74753,-11.832305 3.81338,-3.728825 9.43144,-0.72245 9.43144,-0.72245 z"
       id="path3220"
       transform="rotate(90,-182.66464,81.172353)" />
    <path
       style="fill:#abd642;fill-opacity:1;stroke:#000000;stroke-width:1.12064;stroke-linecap:butt;stroke-linejoin:miter;stroke-dasharray:none;stroke-opacity:1"
       d="m -158.59969,71.440378 c 0,0 5.45833,10.26794 2.00078,14.20221 -3.45754,3.93427 -7.63215,2.94738 -7.63215,2.94738 0,0 1.57911,5.8933 -3.52734,8.16391 -5.10645,2.270616 -8.51975,-3.73278 -8.51975,-3.73278 0,0 -6.6546,6.595606 -11.26024,5.122636 -4.60562,-1.472956 -5.47847,-11.465666 -5.47847,-11.465666 0,0 -6.36461,-1.30242 -8.2794,-6.20343 -1.91478,-4.90101 3.26146,-11.40128 3.26146,-11.40128 0,0 -4.61103,-5.98324 -2.55665,-9.54153 2.05438,-3.55829 12.55331,-3.66443 12.55331,-3.66443 0,0 3.99866,-5.28238 10.75402,-5.88935 6.75534,-0.60696 6.12968,8.28337 6.12968,8.28337 0,0 8.10347,-0.0658 11.8323,3.74753 3.72883,3.81338 0.72245,9.43144 0.72245,9.43144 z"
       id="path3222" />
    <path
       style="opacity:0.434988;fill:#000000;fill-opacity:1;stroke:#000000;stroke-width:1;stroke-linecap:butt;stroke-linejoin:miter;stroke-dasharray:none;stroke-opacity:1;filter:url(#filter3214)"
       d="m -179.75648,69.688409 c 0,0 6.30169,3.938557 5.64527,7.220689 -0.65643,3.282131 -3.28213,4.069844 -3.28213,4.069844 0,0 2.75699,2.756988 0.65642,5.645264 -2.10056,2.888274 -5.90783,0.656428 -5.90783,0.656428 0,0 -1.57542,5.776547 -4.59499,6.432974 -3.01955,0.656426 -6.69555,-4.594983 -6.69555,-4.594983 0,0 -3.93855,1.31285 -6.56425,-0.787711 -2.62571,-2.100566 -1.83799,-7.351977 -1.83799,-7.351977 0,0 -4.4637,-1.837989 -4.4637,-4.463697 0,-2.625704 5.77655,-6.039115 5.77655,-6.039115 0,0 0.52514,-4.201127 4.06984,-6.695549 3.5447,-2.494417 6.03912,2.625708 6.03912,2.625708 0,0 4.4637,-2.625702 7.74583,-1.70671 3.28213,0.918999 3.41341,4.988839 3.41341,4.988839 z"
       id="path3224"
       transform="rotate(90,-182.66464,81.172353)" />
    <path
       style="fill:#abd642;fill-opacity:1;stroke:#000000;stroke-width:1;stroke-linecap:butt;stroke-linejoin:miter;stroke-dasharray:none;stroke-opacity:1"
       d="m -171.1807,84.080518 c 0,0 -3.93856,6.30169 -7.22069,5.64527 -3.28213,-0.65643 -4.06984,-3.28213 -4.06984,-3.28213 0,0 -2.75699,2.75699 -5.64527,0.65642 -2.88827,-2.10056 -0.65642,-5.90783 -0.65642,-5.90783 0,0 -5.77655,-1.57542 -6.43298,-4.59499 -0.65642,-3.01955 4.59498,-6.69555 4.59498,-6.69555 0,0 -1.31285,-3.93855 0.78772,-6.56425 2.10056,-2.62571 7.35197,-1.83799 7.35197,-1.83799 0,0 1.83799,-4.4637 4.4637,-4.4637 2.6257,0 6.03911,5.77655 6.03911,5.77655 0,0 4.20113,0.52514 6.69555,4.06984 2.49442,3.5447 -2.6257,6.03912 -2.6257,6.03912 0,0 2.6257,4.4637 1.70671,7.74583 -0.919,3.28213 -4.98884,3.41341 -4.98884,3.41341 z"
       id="path3226" />
    <path
       style="fill:#abd642;fill-opacity:1;stroke:#000000;stroke-width:1;stroke-linecap:butt;stroke-linejoin:miter;stroke-dasharray:none;stroke-opacity:1"
       d="m -235.21716,82.989091 c 0,0 -0.51257,14.638204 -6.76193,16.752294 -6.24937,2.114095 -10.18163,-1.591569 -10.18163,-1.591569 0,0 -1.98901,7.423104 -8.9893,6.683954 -7.00029,-0.73913 -6.94274,-9.437495 -6.94274,-9.437495 0,0 -11.41291,3.003679 -15.50922,-1.503669 -4.0963,-4.507331 1.2449,-15.957411 1.2449,-15.957411 0,0 -6.12247,-5.429113 -5.12457,-11.981205 0.99791,-6.552099 10.73813,-10.382834 10.73813,-10.382834 0,0 -1.26164,-9.430701 3.22031,-12.018358 4.48197,-2.587664 16.00137,3.908695 16.00137,3.908695 0,0 7.68868,-3.243866 15.4399,0.348506 7.7512,3.592375 1.46966,12.89617 1.46966,12.89617 0,0 8.88099,5.031669 10.54688,11.539814 1.66588,6.508132 -5.15176,10.743108 -5.15176,10.743108 z"
       id="path3228" />
    <path
       style="opacity:0.347518;fill:#000000;fill-opacity:1;stroke:#000000;stroke-width:1.12064;stroke-linecap:butt;stroke-linejoin:miter;stroke-dasharray:none;stroke-opacity:1;filter:url(#filter3208)"
       d="m -192.39662,57.107401 c 0,0 10.26794,-5.458331 14.20221,-2.000784 3.93427,3.457545 2.94738,7.632154 2.94738,7.632154 0,0 5.8933,-1.579108 8.16391,3.527339 2.27062,5.106448 -3.73278,8.519748 -3.73278,8.519748 0,0 6.59561,6.654604 5.12264,11.260237 -1.47296,4.60562 -11.46567,5.478474 -11.46567,5.478474 0,0 -1.30242,6.364614 -6.20343,8.279405 -4.90101,1.914776 -11.40128,-3.261465 -11.40128,-3.261465 0,0 -5.98324,4.611031 -9.54153,2.556647 -3.55829,-2.054379 -3.66443,-12.553303 -3.66443,-12.553303 0,0 -5.28238,-3.998666 -5.88935,-10.754021 -0.60696,-6.755347 8.28337,-6.12968 8.28337,-6.12968 0,0 -0.0658,-8.103471 3.74753,-11.832305 3.81338,-3.728825 9.43144,-0.72245 9.43144,-0.72245 z"
       id="path3230"
       transform="rotate(-165,-223.95197,79.688703)" />
    <path
       style="fill:#abd642;fill-opacity:1;stroke:#000000;stroke-width:1.12064;stroke-linecap:butt;stroke-linejoin:miter;stroke-dasharray:none;stroke-opacity:1"
       d="m -260.27657,93.333445 c 0,0 -11.33079,2.614804 -14.23612,-1.743197 -2.90534,-4.357991 -0.87161,-8.134929 -0.87161,-8.134929 0,0 -6.10119,5e-6 -6.97278,-5.520124 -0.8716,-5.520131 5.81066,-7.263332 5.81066,-7.263332 0,0 -4.64853,-8.134919 -2.03372,-12.202393 2.61478,-4.067458 12.49291,-2.324263 12.49291,-2.324263 0,0 2.90533,-5.81065 8.13492,-6.39172 5.2296,-0.581061 10.16866,6.101197 10.16866,6.101197 0,0 6.97279,-2.905337 9.87812,-5e-6 2.90534,2.905332 0.29054,13.073991 0.29054,13.073991 0,0 4.06745,5.229589 2.90533,11.911861 -1.16214,6.682251 -9.5876,3.776923 -9.5876,3.776923 0,0 -2.03378,7.844381 -6.68226,10.459192 -4.64854,2.614798 -9.29706,-1.743204 -9.29706,-1.743204 z"
       id="path3232" />
    <path
       style="opacity:0.434988;fill:#000000;fill-opacity:1;stroke:#000000;stroke-width:1;stroke-linecap:butt;stroke-linejoin:miter;stroke-dasharray:none;stroke-opacity:1;filter:url(#filter3214)"
       d="m -179.75648,69.688409 c 0,0 6.30169,3.938557 5.64527,7.220689 -0.65643,3.282131 -3.28213,4.069844 -3.28213,4.069844 0,0 2.75699,2.756988 0.65642,5.645264 -2.10056,2.888274 -5.90783,0.656428 -5.90783,0.656428 0,0 -1.57542,5.776547 -4.59499,6.432974 -3.01955,0.656426 -6.69555,-4.594983 -6.69555,-4.594983 0,0 -3.93855,1.31285 -6.56425,-0.787711 -2.62571,-2.100566 -1.83799,-7.351977 -1.83799,-7.351977 0,0 -4.4637,-1.837989 -4.4637,-4.463697 0,-2.625704 5.77655,-6.039115 5.77655,-6.039115 0,0 0.52514,-4.201127 4.06984,-6.695549 3.5447,-2.494417 6.03912,2.625708 6.03912,2.625708 0,0 4.4637,-2.625702 7.74583,-1.70671 3.28213,0.918999 3.41341,4.988839 3.41341,4.988839 z"
       id="path3234"
       transform="rotate(-165,-223.95197,79.688703)" />
    <path
       style="fill:#abd642;fill-opacity:1;stroke:#000000;stroke-width:1;stroke-linecap:butt;stroke-linejoin:miter;stroke-dasharray:none;stroke-opacity:1"
       d="m -269.2298,77.909614 c 0,0 -5.06759,-5.435355 -3.58406,-8.435755 1.48354,-3.000397 4.22364,-3.081686 4.22364,-3.081686 0,0 -1.94948,-3.376609 0.82705,-5.622806 2.77653,-2.246189 5.87642,0.895006 5.87642,0.895006 0,0 3.01682,-5.17197 6.1034,-5.02451 3.08656,0.147464 5.27814,6.171345 5.27814,6.171345 0,0 4.14414,-0.248744 6.1367,2.459832 1.99258,2.708569 -0.12747,7.577165 -0.12747,7.577165 0,0 3.8359,2.930652 3.15631,5.466894 -0.67958,2.536231 -7.14275,4.338251 -7.14275,4.338251 0,0 -1.59458,3.922063 -5.6641,5.414052 -4.06952,1.491989 -5.15376,-4.09927 -5.15376,-4.09927 0,0 -4.99119,1.38094 -7.92363,-0.356213 -2.93244,-1.737164 -2.00589,-5.702305 -2.00589,-5.702305 z"
       id="path3236" />
  </g>
</svg>
