<?xml version="1.0" encoding="UTF-8" standalone="no"?>
<!-- Created with Inkscape (http://www.inkscape.org/) -->

<svg
   width="210mm"
   height="297mm"
   viewBox="0 0 210 297"
   version="1.1"
   id="svg14"
   inkscape:version="1.2.2 (732a01da63, 2022-12-09)"
   sodipodi:docname="BrackeysGameJam25-1-Sprites.svg"
   xmlns:inkscape="http://www.inkscape.org/namespaces/inkscape"
   xmlns:sodipodi="http://sodipodi.sourceforge.net/DTD/sodipodi-0.dtd"
   xmlns="http://www.w3.org/2000/svg"
   xmlns:svg="http://www.w3.org/2000/svg">
  <sodipodi:namedview
     id="namedview16"
     pagecolor="#ffffff"
     bordercolor="#666666"
     borderopacity="1.0"
     inkscape:pageshadow="2"
     inkscape:pageopacity="0.0"
     inkscape:pagecheckerboard="0"
     inkscape:document-units="mm"
     showgrid="false"
     showborder="false"
     inkscape:showpageshadow="2"
     inkscape:deskcolor="#d1d1d1"
     inkscape:zoom="0.5946522"
     inkscape:cx="-192.54953"
     inkscape:cy="581.01189"
     inkscape:window-width="2560"
     inkscape:window-height="1369"
     inkscape:window-x="1072"
     inkscape:window-y="270"
     inkscape:window-maximized="1"
     inkscape:current-layer="layer1" />
  <defs
     id="defs11">
    <filter
       inkscape:collect="always"
       style="color-interpolation-filters:sRGB"
       id="filter3202"
       x="-0.08652423"
       y="-0.083419346"
       width="1.1731321"
       height="1.1668747">
      <feGaussianBlur
         inkscape:collect="always"
         stdDeviation="1.8910795"
         id="feGaussianBlur3204" />
    </filter>
    <filter
       inkscape:collect="always"
       style="color-interpolation-filters:sRGB"
       id="filter3208"
       x="-0.14566684"
       y="-0.15242431"
       width="1.2915147"
       height="1.3049661">
      <feGaussianBlur
         inkscape:collect="always"
         stdDeviation="2.7051318"
         id="feGaussianBlur3210" />
    </filter>
    <filter
       inkscape:collect="always"
       style="color-interpolation-filters:sRGB"
       id="filter3214"
       x="-0.26991263"
       y="-0.28800676"
       width="1.5398407"
       height="1.5760875">
      <feGaussianBlur
         inkscape:collect="always"
         stdDeviation="3.4734952"
         id="feGaussianBlur3216" />
    </filter>
    <filter
       inkscape:collect="always"
       style="color-interpolation-filters:sRGB"
       id="filter3250"
       x="-0.087220647"
       y="-0.081391529"
       width="1.1743813"
       height="1.1627193">
      <feGaussianBlur
         inkscape:collect="always"
         stdDeviation="1.8910795"
         id="feGaussianBlur3252" />
    </filter>
    <filter
       inkscape:collect="always"
       style="color-interpolation-filters:sRGB"
       id="filter3256"
       x="-0.092669751"
       y="-0.089341769"
       width="1.1854232"
       height="1.1787195">
      <feGaussianBlur
         inkscape:collect="always"
         stdDeviation="2.0400721"
         id="feGaussianBlur3254" />
    </filter>
  </defs>
  <g
     inkscape:label="Ebene 1"
     inkscape:groupmode="layer"
     id="layer1">
    <rect
       style="opacity:1;fill:#ffffff;fill-opacity:1;stroke-width:1;stroke-linecap:square;stroke-miterlimit:1.5;stroke-dasharray:none;paint-order:stroke fill markers"
       id="rect5748"
       width="210"
       height="297"
       x="0"
       y="0" />
    <path
       style="opacity:0.12766;fill:#000000;fill-opacity:1;stroke:#000000;stroke-width:1;stroke-linecap:butt;stroke-linejoin:miter;stroke-dasharray:none;stroke-opacity:1;filter:url(#filter3250)"
       d="m -219.55228,57.13692 c 0,0 -0.51257,14.638204 -6.76193,16.752294 -6.24937,2.114095 -10.18163,-1.591569 -10.18163,-1.591569 0,0 -1.98901,7.423104 -8.9893,6.683954 -7.00029,-0.73913 -6.94274,-9.437495 -6.94274,-9.437495 0,0 -11.41291,3.003679 -15.50922,-1.503669 -4.0963,-4.507331 1.2449,-15.957411 1.2449,-15.957411 0,0 -6.12247,-5.429113 -5.12457,-11.981205 0.99791,-6.552099 10.73813,-10.382834 10.73813,-10.382834 0,0 -1.26164,-9.430701 3.22031,-12.018358 4.48197,-2.587664 16.00137,3.908695 16.00137,3.908695 0,0 7.68868,-3.243866 15.4399,0.348506 7.7512,3.592375 1.46966,12.89617 1.46966,12.89617 0,0 8.88099,5.031669 10.54688,11.539814 1.66588,6.508132 -5.15176,10.743108 -5.15176,10.743108 z"
       id="path3248" />
    <path
       style="opacity:0.12766;mix-blend-mode:normal;fill:#000000;fill-opacity:1;stroke:#000000;stroke-width:1;stroke-linecap:butt;stroke-linejoin:miter;stroke-dasharray:none;stroke-opacity:1;filter:url(#filter3256)"
       d="m -194.01755,64.286507 c 0,0 -3.29355,-14.272081 2.19572,-17.931589 5.48926,-3.659508 10.24663,-1.097854 10.24663,-1.097854 0,0 0,-7.684966 6.95307,-8.782818 6.95306,-1.097852 9.14877,7.319015 9.14877,7.319015 0,0 10.24662,-5.855212 15.36994,-2.561655 5.1233,3.293556 2.9276,15.735884 2.9276,15.735884 0,0 7.31901,3.659508 8.05092,10.24662 0.7319,6.587117 -7.68497,12.808283 -7.68497,12.808283 0,0 3.65951,8.782815 0,12.44232 -3.65951,3.659511 -16.46779,0.36595 -16.46779,0.36595 0,0 -6.58711,5.123311 -15.00399,3.659511 -8.41687,-1.463811 -4.75735,-12.076371 -4.75735,-12.076371 0,0 -9.88068,-2.561658 -13.17424,-8.416872 -3.29355,-5.855212 2.1957,-11.710424 2.19569,-11.710424 z"
       id="path3238"
       transform="rotate(150,-162.79899,58.087911)" />
    <path
       style="opacity:0.12766;mix-blend-mode:normal;fill:#000000;fill-opacity:1;stroke:#000000;stroke-width:1;stroke-linecap:butt;stroke-linejoin:miter;stroke-dasharray:none;stroke-opacity:1;filter:url(#filter3202)"
       d="m -105.02996,45.78161 c 0,0 -3.29355,-14.272081 2.19572,-17.931589 5.489263,-3.659508 10.246629,-1.097854 10.246629,-1.097854 0,0 0,-7.684966 6.953075,-8.782818 6.953058,-1.097852 9.148769,7.319015 9.148769,7.319015 0,0 10.246618,-5.855212 15.369933,-2.561655 5.123307,3.293556 2.927606,15.735884 2.927606,15.735884 0,0 7.319011,3.659508 8.050916,10.24662 0.731902,6.587117 -7.68497,12.808283 -7.68497,12.808283 0,0 3.65951,8.782815 0,12.44232 -3.659509,3.659511 -16.467783,0.36595 -16.467783,0.36595 0,0 -6.587115,5.123311 -15.003996,3.659511 -8.416866,-1.463811 -4.757347,-12.076371 -4.757347,-12.076371 0,0 -9.880682,-2.561658 -13.174242,-8.416872 -3.29355,-5.855212 2.1957,-11.710424 2.19569,-11.710424 z"
       id="path3196" />
    <path
       style="fill:#abd642;fill-opacity:1;stroke:#000000;stroke-width:1;stroke-linecap:butt;stroke-linejoin:miter;stroke-dasharray:none;stroke-opacity:1"
       d="m -113.12581,53.742897 c 0,0 -3.29355,-14.272081 2.19571,-17.931589 5.48926,-3.659508 10.24662,-1.097854 10.24662,-1.097854 0,0 0,-7.684966 6.953078,-8.782818 6.953058,-1.097852 9.148769,7.319015 9.148769,7.319015 0,0 10.246618,-5.855212 15.369933,-2.561655 5.123307,3.293556 2.927606,15.735884 2.927606,15.735884 0,0 7.319011,3.659508 8.050916,10.24662 0.731902,6.587117 -7.68497,12.808283 -7.68497,12.808283 0,0 3.65951,8.782815 0,12.44232 -3.659509,3.65951 -16.467783,0.36595 -16.467783,0.36595 0,0 -6.587115,5.12331 -15.003996,3.65951 -8.416863,-1.46381 -4.757353,-12.07637 -4.757353,-12.07637 0,0 -9.88067,-2.561658 -13.17423,-8.416872 -3.29355,-5.855212 2.1957,-11.710424 2.1957,-11.710424 z"
       id="path244" />
    <path
       style="opacity:0.347518;fill:#000000;fill-opacity:1;stroke:#000000;stroke-width:1.12064;stroke-linecap:butt;stroke-linejoin:miter;stroke-dasharray:none;stroke-opacity:1;filter:url(#filter3208)"
       d="m -91.597599,37.265171 c 0,0 10.267946,-5.458331 14.202215,-2.000784 3.934267,3.457545 2.947374,7.632154 2.947374,7.632154 0,0 5.8933,-1.579108 8.163916,3.527339 2.270613,5.106448 -3.732779,8.519748 -3.732779,8.519748 0,0 6.595605,6.654604 5.12264,11.260237 -1.472961,4.60562 -11.465673,5.478474 -11.465673,5.478474 0,0 -1.302423,6.364614 -6.203432,8.279405 -4.901012,1.914779 -11.401278,-3.261465 -11.401278,-3.261465 0,0 -5.983241,4.61103 -9.541534,2.556647 -3.55829,-2.054379 -3.66443,-12.553303 -3.66443,-12.553303 0,0 -5.28238,-3.998666 -5.88935,-10.754021 -0.60696,-6.755347 8.28337,-6.12968 8.28337,-6.12968 0,0 -0.0658,-8.103471 3.74753,-11.832305 3.813383,-3.728825 9.43144,-0.72245 9.43144,-0.72245 z"
       id="path3206" />
    <path
       style="fill:#abd642;fill-opacity:1;stroke:#000000;stroke-width:1.12064;stroke-linecap:butt;stroke-linejoin:miter;stroke-dasharray:none;stroke-opacity:1"
       d="m -91.597599,37.265171 c 0,0 10.267946,-5.458331 14.202215,-2.000784 3.934267,3.457545 2.947374,7.632154 2.947374,7.632154 0,0 5.8933,-1.579108 8.163916,3.527339 2.270613,5.106448 -3.732779,8.519748 -3.732779,8.519748 0,0 6.595605,6.654604 5.12264,11.260237 -1.472961,4.60562 -11.465673,5.478474 -11.465673,5.478474 0,0 -1.302423,6.364614 -6.203432,8.279405 -4.901012,1.914779 -11.401278,-3.261465 -11.401278,-3.261465 0,0 -5.983241,4.61103 -9.541534,2.556647 -3.55829,-2.054379 -3.66443,-12.553303 -3.66443,-12.553303 0,0 -5.28238,-3.998666 -5.88935,-10.754021 -0.60696,-6.755347 8.28337,-6.12968 8.28337,-6.12968 0,0 -0.0658,-8.103471 3.74753,-11.832305 3.813383,-3.728825 9.43144,-0.72245 9.43144,-0.72245 z"
       id="path2360" />
    <path
       style="opacity:0.434988;fill:#000000;fill-opacity:1;stroke:#000000;stroke-width:1;stroke-linecap:butt;stroke-linejoin:miter;stroke-dasharray:none;stroke-opacity:1;filter:url(#filter3214)"
       d="m -78.957457,49.846179 c 0,0 6.301695,3.938557 5.645269,7.220689 -0.656425,3.282131 -3.282133,4.069844 -3.282133,4.069844 0,0 2.75699,2.756988 0.656427,5.645264 -2.100563,2.888274 -5.907836,0.656428 -5.907836,0.656428 0,0 -1.575421,5.776547 -4.594985,6.432974 -3.019555,0.656426 -6.695547,-4.594983 -6.695547,-4.594983 0,0 -3.938555,1.31285 -6.564255,-0.787711 -2.625713,-2.100566 -1.837993,-7.351977 -1.837993,-7.351977 0,0 -4.4637,-1.837989 -4.4637,-4.463697 0,-2.625704 5.77655,-6.039115 5.77655,-6.039115 0,0 0.525143,-4.201127 4.069843,-6.695549 3.544702,-2.494417 6.039121,2.625708 6.039121,2.625708 0,0 4.463699,-2.625702 7.745832,-1.70671 3.282129,0.918999 3.413412,4.988839 3.413412,4.988839 z"
       id="path3212" />
    <path
       style="fill:#abd642;fill-opacity:1;stroke:#000000;stroke-width:1;stroke-linecap:butt;stroke-linejoin:miter;stroke-dasharray:none;stroke-opacity:1"
       d="m -78.957457,49.846179 c 0,0 6.301695,3.938557 5.645269,7.220689 -0.656425,3.282131 -3.282133,4.069844 -3.282133,4.069844 0,0 2.75699,2.756988 0.656427,5.645264 -2.100563,2.888274 -5.907836,0.656428 -5.907836,0.656428 0,0 -1.575421,5.776547 -4.594985,6.432974 -3.019555,0.656426 -6.695547,-4.594983 -6.695547,-4.594983 0,0 -3.938555,1.31285 -6.564255,-0.787711 -2.625713,-2.100566 -1.837993,-7.351977 -1.837993,-7.351977 0,0 -4.4637,-1.837989 -4.4637,-4.463697 0,-2.625704 5.77655,-6.039115 5.77655,-6.039115 0,0 0.525143,-4.201127 4.069843,-6.695549 3.544702,-2.494417 6.039121,2.625708 6.039121,2.625708 0,0 4.463699,-2.625702 7.745832,-1.70671 3.282129,0.918999 3.413412,4.988839 3.413412,4.988839 z"
       id="path2362" />
    <path
       style="fill:#abd642;fill-opacity:1;stroke:#000000;stroke-width:1;stroke-linecap:butt;stroke-linejoin:miter;stroke-dasharray:none;stroke-opacity:1"
       d="m -169.29323,31.407271 c 0,0 14.27208,-3.29355 17.93159,2.19571 3.65951,5.48926 1.09786,10.24662 1.09786,10.24662 0,0 7.68496,0 8.78281,6.95307 1.09786,6.95306 -7.31901,9.14877 -7.31901,9.14877 0,0 5.85521,10.24662 2.56165,15.36994 -3.29355,5.123296 -15.73588,2.9276 -15.73588,2.9276 0,0 -3.65951,7.319002 -10.24662,8.050912 -6.58712,0.7319 -12.80828,-7.684962 -12.80828,-7.684962 0,0 -8.78282,3.659502 -12.44232,0 -3.65951,-3.65951 -0.36595,-16.46778 -0.36595,-16.46778 0,0 -5.12331,-6.58712 -3.65951,-15.004 1.46381,-8.41686 12.07637,-4.75735 12.07637,-4.75735 0,0 2.56165,-9.88067 8.41687,-13.17423 5.85521,-3.29355 11.71042,2.1957 11.71042,2.1957 z"
       id="path3218" />
    <path
       style="opacity:0.347518;fill:#000000;fill-opacity:1;stroke:#000000;stroke-width:1.12064;stroke-linecap:butt;stroke-linejoin:miter;stroke-dasharray:none;stroke-opacity:1;filter:url(#filter3208)"
       d="m -192.39662,57.107401 c 0,0 10.26794,-5.458331 14.20221,-2.000784 3.93427,3.457545 2.94738,7.632154 2.94738,7.632154 0,0 5.8933,-1.579108 8.16391,3.527339 2.27062,5.106448 -3.73278,8.519748 -3.73278,8.519748 0,0 6.59561,6.654604 5.12264,11.260237 -1.47296,4.60562 -11.46567,5.478474 -11.46567,5.478474 0,0 -1.30242,6.364614 -6.20343,8.279405 -4.90101,1.914776 -11.40128,-3.261465 -11.40128,-3.261465 0,0 -5.98324,4.611031 -9.54153,2.556647 -3.55829,-2.054379 -3.66443,-12.553303 -3.66443,-12.553303 0,0 -5.28238,-3.998666 -5.88935,-10.754021 -0.60696,-6.755347 8.28337,-6.12968 8.28337,-6.12968 0,0 -0.0658,-8.103471 3.74753,-11.832305 3.81338,-3.728825 9.43144,-0.72245 9.43144,-0.72245 z"
       id="path3220"
       transform="rotate(90,-170.52009,74.812001)" />
    <path
       style="fill:#abd642;fill-opacity:1;stroke:#000000;stroke-width:1.12064;stroke-linecap:butt;stroke-linejoin:miter;stroke-dasharray:none;stroke-opacity:1"
       d="m -152.8155,52.935481 c 0,0 5.45833,10.26794 2.00078,14.20221 -3.45754,3.93427 -7.63215,2.94738 -7.63215,2.94738 0,0 1.57911,5.8933 -3.52734,8.16391 -5.10645,2.270616 -8.51975,-3.73278 -8.51975,-3.73278 0,0 -6.6546,6.595606 -11.26024,5.122636 -4.60562,-1.472956 -5.47847,-11.465666 -5.47847,-11.465666 0,0 -6.36461,-1.30242 -8.2794,-6.20343 -1.91478,-4.90101 3.26146,-11.40128 3.26146,-11.40128 0,0 -4.61103,-5.98324 -2.55665,-9.54153 2.05438,-3.55829 12.55331,-3.66443 12.55331,-3.66443 0,0 3.99866,-5.28238 10.75402,-5.88935 6.75534,-0.60696 6.12968,8.28337 6.12968,8.28337 0,0 8.10347,-0.0658 11.8323,3.74753 3.72883,3.81338 0.72245,9.43144 0.72245,9.43144 z"
       id="path3222" />
    <path
       style="opacity:0.434988;fill:#000000;fill-opacity:1;stroke:#000000;stroke-width:1;stroke-linecap:butt;stroke-linejoin:miter;stroke-dasharray:none;stroke-opacity:1;filter:url(#filter3214)"
       d="m -179.75648,69.688409 c 0,0 6.30169,3.938557 5.64527,7.220689 -0.65643,3.282131 -3.28213,4.069844 -3.28213,4.069844 0,0 2.75699,2.756988 0.65642,5.645264 -2.10056,2.888274 -5.90783,0.656428 -5.90783,0.656428 0,0 -1.57542,5.776547 -4.59499,6.432974 -3.01955,0.656426 -6.69555,-4.594983 -6.69555,-4.594983 0,0 -3.93855,1.31285 -6.56425,-0.787711 -2.62571,-2.100566 -1.83799,-7.351977 -1.83799,-7.351977 0,0 -4.4637,-1.837989 -4.4637,-4.463697 0,-2.625704 5.77655,-6.039115 5.77655,-6.039115 0,0 0.52514,-4.201127 4.06984,-6.695549 3.5447,-2.494417 6.03912,2.625708 6.03912,2.625708 0,0 4.4637,-2.625702 7.74583,-1.70671 3.28213,0.918999 3.41341,4.988839 3.41341,4.988839 z"
       id="path3224"
       transform="rotate(90,-170.52009,74.812001)" />
    <path
       style="fill:#abd642;fill-opacity:1;stroke:#000000;stroke-width:1;stroke-linecap:butt;stroke-linejoin:miter;stroke-dasharray:none;stroke-opacity:1"
       d="m -165.39651,65.575621 c 0,0 -3.93856,6.30169 -7.22069,5.64527 -3.28213,-0.65643 -4.06984,-3.28213 -4.06984,-3.28213 0,0 -2.75699,2.75699 -5.64527,0.65642 -2.88827,-2.10056 -0.65642,-5.90783 -0.65642,-5.90783 0,0 -5.77655,-1.57542 -6.43298,-4.59499 -0.65642,-3.01955 4.59498,-6.69555 4.59498,-6.69555 0,0 -1.31285,-3.93855 0.78772,-6.56425 2.10056,-2.62571 7.35197,-1.83799 7.35197,-1.83799 0,0 1.83799,-4.4637 4.4637,-4.4637 2.6257,0 6.03911,5.77655 6.03911,5.77655 0,0 4.20113,0.52514 6.69555,4.06984 2.49442,3.5447 -2.6257,6.03912 -2.6257,6.03912 0,0 2.6257,4.4637 1.70671,7.74583 -0.919,3.28213 -4.98884,3.41341 -4.98884,3.41341 z"
       id="path3226" />
    <path
       style="fill:#abd642;fill-opacity:1;stroke:#000000;stroke-width:1;stroke-linecap:butt;stroke-linejoin:miter;stroke-dasharray:none;stroke-opacity:1"
       d="m -229.43297,64.484194 c 0,0 -0.51257,14.638204 -6.76193,16.752294 -6.24937,2.114095 -10.18163,-1.591569 -10.18163,-1.591569 0,0 -1.98901,7.423104 -8.9893,6.683954 -7.00029,-0.73913 -6.94274,-9.437495 -6.94274,-9.437495 0,0 -11.41291,3.003679 -15.50922,-1.503669 -4.0963,-4.507331 1.2449,-15.957411 1.2449,-15.957411 0,0 -6.12247,-5.429113 -5.12457,-11.981205 0.99791,-6.552099 10.73813,-10.382834 10.73813,-10.382834 0,0 -1.26164,-9.430701 3.22031,-12.018358 4.48197,-2.587664 16.00137,3.908695 16.00137,3.908695 0,0 7.68868,-3.243866 15.4399,0.348506 7.7512,3.592375 1.46966,12.89617 1.46966,12.89617 0,0 8.88099,5.031669 10.54688,11.539814 1.66588,6.508132 -5.15176,10.743108 -5.15176,10.743108 z"
       id="path3228" />
    <path
       style="opacity:0.347518;fill:#000000;fill-opacity:1;stroke:#000000;stroke-width:1.12064;stroke-linecap:butt;stroke-linejoin:miter;stroke-dasharray:none;stroke-opacity:1;filter:url(#filter3208)"
       d="m -192.39662,57.107401 c 0,0 10.26794,-5.458331 14.20221,-2.000784 3.93427,3.457545 2.94738,7.632154 2.94738,7.632154 0,0 5.8933,-1.579108 8.16391,3.527339 2.27062,5.106448 -3.73278,8.519748 -3.73278,8.519748 0,0 6.59561,6.654604 5.12264,11.260237 -1.47296,4.60562 -11.46567,5.478474 -11.46567,5.478474 0,0 -1.30242,6.364614 -6.20343,8.279405 -4.90101,1.914776 -11.40128,-3.261465 -11.40128,-3.261465 0,0 -5.98324,4.611031 -9.54153,2.556647 -3.55829,-2.054379 -3.66443,-12.553303 -3.66443,-12.553303 0,0 -5.28238,-3.998666 -5.88935,-10.754021 -0.60696,-6.755347 8.28337,-6.12968 8.28337,-6.12968 0,0 -0.0658,-8.103471 3.74753,-11.832305 3.81338,-3.728825 9.43144,-0.72245 9.43144,-0.72245 z"
       id="path3230"
       transform="rotate(-165,-222.27798,70.055503)" />
    <path
       style="fill:#abd642;fill-opacity:1;stroke:#000000;stroke-width:1.12064;stroke-linecap:butt;stroke-linejoin:miter;stroke-dasharray:none;stroke-opacity:1"
       d="m -254.49238,74.828548 c 0,0 -11.33079,2.614804 -14.23612,-1.743197 -2.90534,-4.357991 -0.87161,-8.134929 -0.87161,-8.134929 0,0 -6.10119,5e-6 -6.97278,-5.520124 -0.8716,-5.520131 5.81066,-7.263332 5.81066,-7.263332 0,0 -4.64853,-8.134919 -2.03372,-12.202393 2.61478,-4.067458 12.49291,-2.324263 12.49291,-2.324263 0,0 2.90533,-5.81065 8.13492,-6.39172 5.2296,-0.581061 10.16866,6.101197 10.16866,6.101197 0,0 6.97279,-2.905337 9.87812,-5e-6 2.90534,2.905332 0.29054,13.073991 0.29054,13.073991 0,0 4.06745,5.229589 2.90533,11.911861 -1.16214,6.682251 -9.5876,3.776923 -9.5876,3.776923 0,0 -2.03378,7.844381 -6.68226,10.459192 -4.64854,2.614798 -9.29706,-1.743204 -9.29706,-1.743204 z"
       id="path3232" />
    <path
       style="opacity:0.434988;fill:#000000;fill-opacity:1;stroke:#000000;stroke-width:1;stroke-linecap:butt;stroke-linejoin:miter;stroke-dasharray:none;stroke-opacity:1;filter:url(#filter3214)"
       d="m -179.75648,69.688409 c 0,0 6.30169,3.938557 5.64527,7.220689 -0.65643,3.282131 -3.28213,4.069844 -3.28213,4.069844 0,0 2.75699,2.756988 0.65642,5.645264 -2.10056,2.888274 -5.90783,0.656428 -5.90783,0.656428 0,0 -1.57542,5.776547 -4.59499,6.432974 -3.01955,0.656426 -6.69555,-4.594983 -6.69555,-4.594983 0,0 -3.93855,1.31285 -6.56425,-0.787711 -2.62571,-2.100566 -1.83799,-7.351977 -1.83799,-7.351977 0,0 -4.4637,-1.837989 -4.4637,-4.463697 0,-2.625704 5.77655,-6.039115 5.77655,-6.039115 0,0 0.52514,-4.201127 4.06984,-6.695549 3.5447,-2.494417 6.03912,2.625708 6.03912,2.625708 0,0 4.4637,-2.625702 7.74583,-1.70671 3.28213,0.918999 3.41341,4.988839 3.41341,4.988839 z"
       id="path3234"
       transform="rotate(-165,-222.27798,70.055503)" />
    <path
       style="fill:#abd642;fill-opacity:1;stroke:#000000;stroke-width:1;stroke-linecap:butt;stroke-linejoin:miter;stroke-dasharray:none;stroke-opacity:1"
       d="m -263.44561,59.404717 c 0,0 -5.06759,-5.435355 -3.58406,-8.435755 1.48354,-3.000397 4.22364,-3.081686 4.22364,-3.081686 0,0 -1.94948,-3.376609 0.82705,-5.622806 2.77653,-2.246189 5.87642,0.895006 5.87642,0.895006 0,0 3.01682,-5.17197 6.1034,-5.02451 3.08656,0.147464 5.27814,6.171345 5.27814,6.171345 0,0 4.14414,-0.248744 6.1367,2.459832 1.99258,2.708569 -0.12747,7.577165 -0.12747,7.577165 0,0 3.8359,2.930652 3.15631,5.466894 -0.67958,2.536231 -7.14275,4.338251 -7.14275,4.338251 0,0 -1.59458,3.922063 -5.6641,5.414052 -4.06952,1.491989 -5.15376,-4.09927 -5.15376,-4.09927 0,0 -4.99119,1.38094 -7.92363,-0.356213 -2.93244,-1.737164 -2.00589,-5.702305 -2.00589,-5.702305 z"
       id="path3236" />
    <path
       style="opacity:0.12766;fill:#000000;fill-opacity:1;stroke:#000000;stroke-width:1;stroke-linecap:butt;stroke-linejoin:miter;stroke-dasharray:none;stroke-opacity:1;filter:url(#filter3250)"
       d="m 38.823574,50.297355 c 0,0 -0.51257,14.638204 -6.76193,16.752294 -6.24937,2.114095 -10.18163,-1.591569 -10.18163,-1.591569 0,0 -1.98901,7.423104 -8.9893,6.683954 -7.0002896,-0.73913 -6.9427396,-9.437495 -6.9427396,-9.437495 0,0 -11.41291,3.003679 -15.50922,-1.503669 -4.0963004,-4.507331 1.2449,-15.957411 1.2449,-15.957411 0,0 -6.1224704,-5.429113 -5.1245704,-11.981205 0.99791,-6.552099 10.7381304,-10.382834 10.7381304,-10.382834 0,0 -1.26164,-9.430701 3.22031004,-12.018358 4.48196996,-2.5876636 16.00136956,3.908695 16.00136956,3.908695 0,0 7.68868,-3.243866 15.4399,0.348506 7.7512,3.592375 1.46966,12.89617 1.46966,12.89617 0,0 8.88099,5.031669 10.54688,11.539814 1.66588,6.508132 -5.15176,10.743108 -5.15176,10.743108 z"
       id="path4778"
       transform="matrix(0.700598,0,0,0.700598,41.927717,7.4345)" />
    <path
       style="opacity:0.12766;mix-blend-mode:normal;fill:#000000;fill-opacity:1;stroke:#000000;stroke-width:1;stroke-linecap:butt;stroke-linejoin:miter;stroke-dasharray:none;stroke-opacity:1;filter:url(#filter3256)"
       d="m -194.01755,64.286507 c 0,0 -3.29355,-14.272081 2.19572,-17.931589 5.48926,-3.659508 10.24663,-1.097854 10.24663,-1.097854 0,0 0,-7.684966 6.95307,-8.782818 6.95306,-1.097852 9.14877,7.319015 9.14877,7.319015 0,0 10.24662,-5.855212 15.36994,-2.561655 5.1233,3.293556 2.9276,15.735884 2.9276,15.735884 0,0 7.31901,3.659508 8.05092,10.24662 0.7319,6.587117 -7.68497,12.808283 -7.68497,12.808283 0,0 3.65951,8.782815 0,12.44232 -3.65951,3.659511 -16.46779,0.36595 -16.46779,0.36595 0,0 -6.58711,5.123311 -15.00399,3.659511 -8.41687,-1.463811 -4.75735,-12.076371 -4.75735,-12.076371 0,0 -9.88068,-2.561658 -13.17424,-8.416872 -3.29355,-5.855212 2.1957,-11.710424 2.19569,-11.710424 z"
       id="path4780"
       transform="matrix(-0.60673566,0.350299,-0.350299,-0.60673566,30.46086,135.61132)" />
    <path
       style="opacity:0.12766;mix-blend-mode:normal;fill:#000000;fill-opacity:1;stroke:#000000;stroke-width:1;stroke-linecap:butt;stroke-linejoin:miter;stroke-dasharray:none;stroke-opacity:1;filter:url(#filter3202)"
       d="m 153.34589,38.942045 c 0,0 -3.29355,-14.272081 2.19572,-17.931589 5.48927,-3.659508 10.24663,-1.097854 10.24663,-1.097854 0,0 0,-7.684966 6.95308,-8.782818 6.95306,-1.097852 9.14877,7.319015 9.14877,7.319015 0,0 10.24662,-5.855212 15.36993,-2.561655 5.12331,3.293556 2.92761,15.735884 2.92761,15.735884 0,0 7.31901,3.659508 8.05091,10.24662 0.7319,6.587117 -7.68497,12.808283 -7.68497,12.808283 0,0 3.65951,8.782815 0,12.44232 -3.65951,3.659511 -16.46778,0.36595 -16.46778,0.36595 0,0 -6.58712,5.123311 -15.004,3.659511 -8.41686,-1.463811 -4.75734,-12.076371 -4.75734,-12.076371 0,0 -9.88069,-2.561658 -13.17425,-8.416872 -3.29355,-5.855212 2.1957,-11.710424 2.19569,-11.710424 z"
       id="path4782"
       transform="matrix(0.700598,0,0,0.700598,41.927717,7.4345)" />
    <path
       style="fill:#abd642;fill-opacity:1;stroke:#000000;stroke-width:0.700598;stroke-linecap:butt;stroke-linejoin:miter;stroke-dasharray:none;stroke-opacity:1"
       d="m 143.6896,40.294881 c 0,0 -2.30745,-9.998992 1.53831,-12.562835 3.84576,-2.563844 7.17876,-0.769155 7.17876,-0.769155 0,0 0,-5.384072 4.87131,-6.153225 4.8713,-0.769152 6.40961,5.127688 6.40961,5.127688 0,0 7.17877,-4.10215 10.76815,-1.794691 3.58938,2.307459 2.05107,11.024529 2.05107,11.024529 0,0 5.12769,2.563844 5.64046,7.178762 0.51277,4.614921 -5.38407,8.973457 -5.38407,8.973457 0,0 2.56384,6.153223 0,8.717065 -2.56385,2.563845 -11.5373,0.256383 -11.5373,0.256383 0,0 -4.61492,3.589381 -10.51177,2.563846 -5.89684,-1.025543 -3.33299,-8.460681 -3.33299,-8.460681 0,0 -6.92238,-1.794692 -9.22984,-5.896844 -2.30745,-4.102149 1.5383,-8.204299 1.5383,-8.204299 z"
       id="path4784" />
    <path
       style="opacity:0.347518;fill:#000000;fill-opacity:1;stroke:#000000;stroke-width:1.12064;stroke-linecap:butt;stroke-linejoin:miter;stroke-dasharray:none;stroke-opacity:1;filter:url(#filter3208)"
       d="m 166.77826,30.425606 c 0,0 10.26794,-5.458331 14.20221,-2.000784 3.93427,3.457545 2.94737,7.632154 2.94737,7.632154 0,0 5.8933,-1.579108 8.16392,3.527339 2.27061,5.106448 -3.73278,8.519748 -3.73278,8.519748 0,0 6.59561,6.654604 5.12264,11.260237 -1.47296,4.60562 -11.46567,5.478474 -11.46567,5.478474 0,0 -1.30242,6.364614 -6.20343,8.279405 -4.90102,1.914779 -11.40128,-3.261465 -11.40128,-3.261465 0,0 -5.98324,4.61103 -9.54154,2.556647 -3.55829,-2.054379 -3.66443,-12.553303 -3.66443,-12.553303 0,0 -5.28238,-3.998666 -5.88935,-10.754021 -0.60696,-6.755347 8.28337,-6.12968 8.28337,-6.12968 0,0 -0.0658,-8.103471 3.74753,-11.832305 3.81339,-3.728825 9.43144,-0.72245 9.43144,-0.72245 z"
       id="path4786"
       transform="matrix(0.700598,0,0,0.700598,41.927717,7.4345)" />
    <path
       style="fill:#abd642;fill-opacity:1;stroke:#000000;stroke-width:0.785118;stroke-linecap:butt;stroke-linejoin:miter;stroke-dasharray:none;stroke-opacity:1"
       d="m 158.77223,28.750619 c 0,0 7.1937,-3.824096 9.95004,-1.401745 2.75634,2.422349 2.06492,5.347072 2.06492,5.347072 0,0 4.12883,-1.10632 5.71962,2.471246 1.59079,3.577567 -2.61517,5.968919 -2.61517,5.968919 0,0 4.62087,4.662202 3.58891,7.888899 -1.03196,3.226688 -8.03283,3.838208 -8.03283,3.838208 0,0 -0.91247,4.459036 -4.34611,5.800535 -3.43364,1.34149 -7.98771,-2.284976 -7.98771,-2.284976 0,0 -4.19185,3.230478 -6.68479,1.791181 -2.49292,-1.439293 -2.56728,-8.794818 -2.56728,-8.794818 0,0 -3.70083,-2.801458 -4.12607,-7.534246 -0.42524,-4.732783 5.80331,-4.294442 5.80331,-4.294442 0,0 -0.0461,-5.677275 2.62551,-8.289689 2.67165,-2.612407 6.60765,-0.506147 6.60765,-0.506147 z"
       id="path4788" />
    <path
       style="opacity:0.434988;fill:#000000;fill-opacity:1;stroke:#000000;stroke-width:1;stroke-linecap:butt;stroke-linejoin:miter;stroke-dasharray:none;stroke-opacity:1;filter:url(#filter3214)"
       d="m 179.4184,43.006614 c 0,0 6.30169,3.938557 5.64527,7.220689 -0.65643,3.282131 -3.28214,4.069844 -3.28214,4.069844 0,0 2.75699,2.756988 0.65643,5.645264 -2.10056,2.888274 -5.90784,0.656428 -5.90784,0.656428 0,0 -1.57542,5.776547 -4.59498,6.432974 -3.01956,0.656426 -6.69555,-4.594983 -6.69555,-4.594983 0,0 -3.93855,1.31285 -6.56425,-0.787711 -2.62572,-2.100566 -1.838,-7.351977 -1.838,-7.351977 0,0 -4.4637,-1.837989 -4.4637,-4.463697 0,-2.625704 5.77655,-6.039115 5.77655,-6.039115 0,0 0.52515,-4.201127 4.06985,-6.695549 3.5447,-2.494417 6.03912,2.625708 6.03912,2.625708 0,0 4.4637,-2.625702 7.74583,-1.70671 3.28213,0.918999 3.41341,4.988839 3.41341,4.988839 z"
       id="path4790"
       transform="matrix(0.700598,0,0,0.700598,41.927717,7.4345)" />
    <path
       style="fill:#abd642;fill-opacity:1;stroke:#000000;stroke-width:0.700598;stroke-linecap:butt;stroke-linejoin:miter;stroke-dasharray:none;stroke-opacity:1"
       d="m 167.62788,37.564848 c 0,0 4.41496,2.759345 3.95507,5.0588 -0.45989,2.299455 -2.29946,2.851325 -2.29946,2.851325 0,0 1.93154,1.93154 0.45989,3.95506 -1.47165,2.023519 -4.13902,0.459893 -4.13902,0.459893 0,0 -1.10374,4.047037 -3.21923,4.506928 -2.1155,0.459891 -4.69089,-3.219236 -4.69089,-3.219236 0,0 -2.75934,0.919781 -4.5989,-0.551868 -1.83958,-1.471653 -1.2877,-5.150781 -1.2877,-5.150781 0,0 -3.12726,-1.287691 -3.12726,-3.127257 0,-1.839563 4.04704,-4.230992 4.04704,-4.230992 0,0 0.36792,-2.943301 2.85133,-4.690888 2.48341,-1.747584 4.23099,1.839566 4.23099,1.839566 0,0 3.12726,-1.839562 5.42672,-1.195718 2.29945,0.643849 2.39142,3.495171 2.39142,3.495171 z"
       id="path4792" />
    <path
       style="fill:#abd642;fill-opacity:1;stroke:#000000;stroke-width:0.700598;stroke-linecap:butt;stroke-linejoin:miter;stroke-dasharray:none;stroke-opacity:1"
       d="m 104.33882,24.646586 c 0,0 9.99899,-2.307455 12.56284,1.53831 2.56384,3.845765 0.76916,7.178761 0.76916,7.178761 0,0 5.38406,0 6.15322,4.871307 0.76915,4.8713 -5.12769,6.40961 -5.12769,6.40961 0,0 4.10215,7.178762 1.79469,10.76815 -2.30746,3.58937 -11.02452,2.05107 -11.02452,2.05107 0,0 -2.56385,5.127678 -7.17877,5.640453 -4.614919,0.512768 -8.973451,-5.384069 -8.973451,-5.384069 0,0 -6.153226,2.56384 -8.717064,0 -2.563846,-2.563845 -0.256384,-11.537294 -0.256384,-11.537294 0,0 -3.589381,-4.614923 -2.563846,-10.511772 1.025543,-5.896835 8.460681,-3.33299 8.460681,-3.33299 0,0 1.794687,-6.922377 5.896842,-9.229839 4.102152,-2.307455 8.204292,1.538303 8.204292,1.538303 z"
       id="path4794" />
    <path
       style="opacity:0.347518;fill:#000000;fill-opacity:1;stroke:#000000;stroke-width:1.12064;stroke-linecap:butt;stroke-linejoin:miter;stroke-dasharray:none;stroke-opacity:1;filter:url(#filter3208)"
       d="m -192.39662,57.107401 c 0,0 10.26794,-5.458331 14.20221,-2.000784 3.93427,3.457545 2.94738,7.632154 2.94738,7.632154 0,0 5.8933,-1.579108 8.16391,3.527339 2.27062,5.106448 -3.73278,8.519748 -3.73278,8.519748 0,0 6.59561,6.654604 5.12264,11.260237 -1.47296,4.60562 -11.46567,5.478474 -11.46567,5.478474 0,0 -1.30242,6.364614 -6.20343,8.279405 -4.90101,1.914776 -11.40128,-3.261465 -11.40128,-3.261465 0,0 -5.98324,4.611031 -9.54153,2.556647 -3.55829,-2.054379 -3.66443,-12.553303 -3.66443,-12.553303 0,0 -5.28238,-3.998666 -5.88935,-10.754021 -0.60696,-6.755347 8.28337,-6.12968 8.28337,-6.12968 0,0 -0.0658,-8.103471 3.74753,-11.832305 3.81338,-3.728825 9.43144,-0.72245 9.43144,-0.72245 z"
       id="path4796"
       transform="matrix(0,0.700598,-0.700598,0,155.89243,174.52189)" />
    <path
       style="fill:#abd642;fill-opacity:1;stroke:#000000;stroke-width:0.785118;stroke-linecap:butt;stroke-linejoin:miter;stroke-dasharray:none;stroke-opacity:1"
       d="m 115.88309,39.729207 c 0,0 3.82409,7.193698 1.40174,9.95004 -2.42235,2.756341 -5.34707,2.064928 -5.34707,2.064928 0,0 1.10632,4.128834 -2.47124,5.719619 -3.57757,1.590789 -5.96892,-2.615178 -5.96892,-2.615178 0,0 -4.662203,4.620868 -7.888906,3.588909 -3.226688,-1.03195 -3.838205,-8.032823 -3.838205,-8.032823 0,0 -4.459033,-0.912473 -5.800531,-4.346111 -1.341491,-3.433638 2.284973,-7.987714 2.284973,-7.987714 0,0 -3.230479,-4.191846 -1.791184,-6.684776 1.439294,-2.492931 8.794824,-2.567293 8.794824,-2.567293 0,0 2.801453,-3.700825 7.534239,-4.126067 4.73278,-0.425235 4.29445,5.803313 4.29445,5.803313 0,0 5.67727,-0.0461 8.28968,2.625512 2.61241,2.671646 0.50615,6.607648 0.50615,6.607648 z"
       id="path4798" />
    <path
       style="opacity:0.434988;fill:#000000;fill-opacity:1;stroke:#000000;stroke-width:1;stroke-linecap:butt;stroke-linejoin:miter;stroke-dasharray:none;stroke-opacity:1;filter:url(#filter3214)"
       d="m -179.75648,69.688409 c 0,0 6.30169,3.938557 5.64527,7.220689 -0.65643,3.282131 -3.28213,4.069844 -3.28213,4.069844 0,0 2.75699,2.756988 0.65642,5.645264 -2.10056,2.888274 -5.90783,0.656428 -5.90783,0.656428 0,0 -1.57542,5.776547 -4.59499,6.432974 -3.01955,0.656426 -6.69555,-4.594983 -6.69555,-4.594983 0,0 -3.93855,1.31285 -6.56425,-0.787711 -2.62571,-2.100566 -1.83799,-7.351977 -1.83799,-7.351977 0,0 -4.4637,-1.837989 -4.4637,-4.463697 0,-2.625704 5.77655,-6.039115 5.77655,-6.039115 0,0 0.52514,-4.201127 4.06984,-6.695549 3.5447,-2.494417 6.03912,2.625708 6.03912,2.625708 0,0 4.4637,-2.625702 7.74583,-1.70671 3.28213,0.918999 3.41341,4.988839 3.41341,4.988839 z"
       id="path4800"
       transform="matrix(0,0.700598,-0.700598,0,155.89243,174.52189)" />
    <path
       style="fill:#abd642;fill-opacity:1;stroke:#000000;stroke-width:0.700598;stroke-linecap:butt;stroke-linejoin:miter;stroke-dasharray:none;stroke-opacity:1"
       d="m 107.06886,48.584864 c 0,0 -2.75935,4.414951 -5.0588,3.955064 -2.299455,-0.459893 -2.851323,-2.299453 -2.851323,-2.299453 0,0 -1.931542,1.931541 -3.955065,0.459886 -2.023516,-1.471648 -0.459887,-4.139014 -0.459887,-4.139014 0,0 -4.047039,-1.103736 -4.506933,-3.21924 -0.459886,-2.115491 3.219234,-4.690889 3.219234,-4.690889 0,0 -0.91978,-2.759341 0.551875,-4.598901 1.471648,-1.839567 5.150776,-1.287692 5.150776,-1.287692 0,0 1.287693,-3.127259 3.127263,-3.127259 1.83956,0 4.23098,4.047039 4.23098,4.047039 0,0 2.94331,0.367912 4.69089,2.851322 1.74759,2.48341 -1.83956,4.230995 -1.83956,4.230995 0,0 1.83956,3.12726 1.19572,5.426713 -0.64385,2.299454 -3.49517,2.391429 -3.49517,2.391429 z"
       id="path4802" />
    <path
       style="fill:#abd642;fill-opacity:1;stroke:#000000;stroke-width:0.700598;stroke-linecap:butt;stroke-linejoin:miter;stroke-dasharray:none;stroke-opacity:1"
       d="m 62.205044,47.820212 c 0,0 -0.359106,10.255496 -4.737395,11.736624 -4.378296,1.48113 -7.13323,-1.11505 -7.13323,-1.11505 0,0 -1.393496,5.200611 -6.297885,4.682764 -4.904389,-0.517833 -4.86407,-6.61189 -4.86407,-6.61189 0,0 -7.995862,2.104372 -10.865728,-1.053467 -2.86986,-3.157827 0.872174,-11.17973 0.872174,-11.17973 0,0 -4.28939,-3.803626 -3.590263,-8.394009 0.699133,-4.590387 7.523112,-7.274192 7.523112,-7.274192 0,0 -0.883902,-6.607131 2.256143,-8.420038 3.140059,-1.812912 11.210528,2.738424 11.210528,2.738424 0,0 5.386673,-2.272646 10.817162,0.244163 5.430476,2.51681 1.029641,9.03503 1.029641,9.03503 0,0 6.222004,3.525178 7.389123,8.084771 1.167113,4.559584 -3.609312,7.5266 -3.609312,7.5266 z"
       id="path4804" />
    <path
       style="opacity:0.347518;fill:#000000;fill-opacity:1;stroke:#000000;stroke-width:1.12064;stroke-linecap:butt;stroke-linejoin:miter;stroke-dasharray:none;stroke-opacity:1;filter:url(#filter3208)"
       d="m -192.39662,57.107401 c 0,0 10.26794,-5.458331 14.20221,-2.000784 3.93427,3.457545 2.94738,7.632154 2.94738,7.632154 0,0 5.8933,-1.579108 8.16391,3.527339 2.27062,5.106448 -3.73278,8.519748 -3.73278,8.519748 0,0 6.59561,6.654604 5.12264,11.260237 -1.47296,4.60562 -11.46567,5.478474 -11.46567,5.478474 0,0 -1.30242,6.364614 -6.20343,8.279405 -4.90101,1.914776 -11.40128,-3.261465 -11.40128,-3.261465 0,0 -5.98324,4.611031 -9.54153,2.556647 -3.55829,-2.054379 -3.66443,-12.553303 -3.66443,-12.553303 0,0 -5.28238,-3.998666 -5.88935,-10.754021 -0.60696,-6.755347 8.28337,-6.12968 8.28337,-6.12968 0,0 -0.0658,-8.103471 3.74753,-11.832305 3.81338,-3.728825 9.43144,-0.72245 9.43144,-0.72245 z"
       id="path4806"
       transform="matrix(-0.6767257,-0.1813281,0.1813281,-0.6767257,-95.906435,58.826574)" />
    <path
       style="fill:#abd642;fill-opacity:1;stroke:#000000;stroke-width:0.785118;stroke-linecap:butt;stroke-linejoin:miter;stroke-dasharray:none;stroke-opacity:1"
       d="m 44.648471,55.067446 c 0,0 -7.938328,1.831926 -9.973797,-1.221281 -2.035475,-3.053199 -0.610648,-5.699315 -0.610648,-5.699315 0,0 -4.274482,4e-6 -4.885116,-3.867387 -0.610641,-3.867393 4.070937,-5.088676 4.070937,-5.088676 0,0 -3.256751,-5.699308 -1.42482,-8.548972 1.831909,-2.849653 8.752508,-1.628374 8.752508,-1.628374 0,0 2.035468,-4.07093 5.699308,-4.478027 3.663847,-0.40709 7.124143,4.274487 7.124143,4.274487 0,0 4.885123,-2.035473 6.920591,-4e-6 2.035475,2.03547 0.203552,9.159612 0.203552,9.159612 0,0 2.849647,3.66384 2.035468,8.345426 -0.814193,4.681572 -6.717053,2.646105 -6.717053,2.646105 0,0 -1.424862,5.495757 -4.681578,7.327689 -3.256758,1.831922 -6.513502,-1.221285 -6.513502,-1.221285 z"
       id="path4808" />
    <path
       style="opacity:0.434988;fill:#000000;fill-opacity:1;stroke:#000000;stroke-width:1;stroke-linecap:butt;stroke-linejoin:miter;stroke-dasharray:none;stroke-opacity:1;filter:url(#filter3214)"
       d="m -179.75648,69.688409 c 0,0 6.30169,3.938557 5.64527,7.220689 -0.65643,3.282131 -3.28213,4.069844 -3.28213,4.069844 0,0 2.75699,2.756988 0.65642,5.645264 -2.10056,2.888274 -5.90783,0.656428 -5.90783,0.656428 0,0 -1.57542,5.776547 -4.59499,6.432974 -3.01955,0.656426 -6.69555,-4.594983 -6.69555,-4.594983 0,0 -3.93855,1.31285 -6.56425,-0.787711 -2.62571,-2.100566 -1.83799,-7.351977 -1.83799,-7.351977 0,0 -4.4637,-1.837989 -4.4637,-4.463697 0,-2.625704 5.77655,-6.039115 5.77655,-6.039115 0,0 0.52514,-4.201127 4.06984,-6.695549 3.5447,-2.494417 6.03912,2.625708 6.03912,2.625708 0,0 4.4637,-2.625702 7.74583,-1.70671 3.28213,0.918999 3.41341,4.988839 3.41341,4.988839 z"
       id="path4810"
       transform="matrix(-0.6767257,-0.1813281,0.1813281,-0.6767257,-95.906435,58.826574)" />
    <path
       style="fill:#abd642;fill-opacity:1;stroke:#000000;stroke-width:0.700598;stroke-linecap:butt;stroke-linejoin:miter;stroke-dasharray:none;stroke-opacity:1"
       d="m 38.375856,44.261541 c 0,0 -3.550343,-3.807999 -2.510985,-5.910073 1.039365,-2.102073 2.959074,-2.159024 2.959074,-2.159024 0,0 -1.365802,-2.365645 0.579429,-3.939326 1.945232,-1.573676 4.117009,0.627039 4.117009,0.627039 0,0 2.113578,-3.623472 4.276029,-3.520161 2.162438,0.103313 3.697854,4.323632 3.697854,4.323632 0,0 2.903377,-0.17427 4.29936,1.723353 1.395998,1.897618 -0.08931,5.308547 -0.08931,5.308547 0,0 2.687424,2.053209 2.211305,3.830095 -0.476113,1.776878 -5.004197,3.03937 -5.004197,3.03937 0,0 -1.117159,2.747789 -3.968257,3.793074 -2.851097,1.045284 -3.610714,-2.871941 -3.610714,-2.871941 0,0 -3.496817,0.967484 -5.551279,-0.249562 -2.054462,-1.217054 -1.405323,-3.995023 -1.405323,-3.995023 z"
       id="path4812" />
    <text
       xml:space="preserve"
       style="font-size:5.88647px;line-height:1.25;font-family:Arial;-inkscape-font-specification:Arial;stroke-width:0.147162"
       x="-0.77369612"
       y="-6.1305614"
       id="text5644"><tspan
         sodipodi:role="line"
         id="tspan5642"
         style="stroke-width:0.147162"
         x="-0.77369612"
         y="-6.1305614">Move finished sprites here, so they show up in githup preview:</tspan></text>
  </g>
</svg>
