<?xml version="1.0" encoding="UTF-8" standalone="no"?>
<!-- Created with Inkscape (http://www.inkscape.org/) -->

<svg
   xml:space="preserve"
   sodipodi:docname="BrackeysGameJam25-1-Sprites.svg"
   inkscape:version="1.2.2 (732a01da63, 2022-12-09)"
   id="svg14"
   version="1.1"
   viewBox="0 0 210 297"
   height="297mm"
   width="210mm"
   xmlns:inkscape="http://www.inkscape.org/namespaces/inkscape"
   xmlns:sodipodi="http://sodipodi.sourceforge.net/DTD/sodipodi-0.dtd"
   xmlns:xlink="http://www.w3.org/1999/xlink"
   xmlns="http://www.w3.org/2000/svg"
   xmlns:svg="http://www.w3.org/2000/svg"><sodipodi:namedview
     id="namedview16"
     pagecolor="#ffffff"
     bordercolor="#666666"
     borderopacity="1.0"
     inkscape:pageshadow="2"
     inkscape:pageopacity="0.0"
     inkscape:pagecheckerboard="0"
     inkscape:document-units="mm"
     showgrid="false"
     showborder="false"
     inkscape:showpageshadow="2"
     inkscape:deskcolor="#d1d1d1"
     inkscape:zoom="0.7071068"
     inkscape:cx="-1420.5775"
     inkscape:cy="2301.6325"
     inkscape:window-width="2560"
     inkscape:window-height="1369"
     inkscape:window-x="1072"
     inkscape:window-y="270"
     inkscape:window-maximized="1"
     inkscape:current-layer="layer1" /><defs
     id="defs11"><linearGradient
       inkscape:collect="always"
       id="linearGradient3719"><stop
         style="stop-color:#000000;stop-opacity:1;"
         offset="0"
         id="stop3715" /><stop
         style="stop-color:#ffffff;stop-opacity:1;"
         offset="1"
         id="stop3717" /></linearGradient><linearGradient
       id="linearGradient1733"
       inkscape:swatch="gradient"><stop
         style="stop-color:#000000;stop-opacity:1;"
         offset="0"
         id="stop1729" /><stop
         style="stop-color:#000000;stop-opacity:0;"
         offset="1"
         id="stop1731" /></linearGradient><filter
       inkscape:collect="always"
       style="color-interpolation-filters:sRGB"
       id="filter3208"
       x="-0.14566682"
       y="-0.15242431"
       width="1.2915146"
       height="1.3049661"><feGaussianBlur
         inkscape:collect="always"
         stdDeviation="2.7051318"
         id="feGaussianBlur3210" /></filter><filter
       inkscape:collect="always"
       style="color-interpolation-filters:sRGB"
       id="filter3214"
       x="-0.26991262"
       y="-0.28800677"
       width="1.5398407"
       height="1.5760875"><feGaussianBlur
         inkscape:collect="always"
         stdDeviation="3.4734952"
         id="feGaussianBlur3216" /></filter><filter
       inkscape:collect="always"
       style="color-interpolation-filters:sRGB"
       id="filter1609"
       x="-0.098393638"
       y="-0.094821636"
       width="1.1967873"
       height="1.1896433"><feGaussianBlur
         inkscape:collect="always"
         stdDeviation="2.3854642"
         id="feGaussianBlur1611" /></filter><filter
       inkscape:collect="always"
       style="color-interpolation-filters:sRGB"
       id="filter9273"
       x="-0.3691774"
       y="-0.58728886"
       width="1.7383548"
       height="2.1745777"><feGaussianBlur
         inkscape:collect="always"
         stdDeviation="1.5445601"
         id="feGaussianBlur9275" /></filter><filter
       inkscape:collect="always"
       style="color-interpolation-filters:sRGB"
       id="filter9279"
       x="-0.64250516"
       y="-1.0220997"
       width="2.2850103"
       height="3.0441995"><feGaussianBlur
         inkscape:collect="always"
         stdDeviation="2.6881057"
         id="feGaussianBlur9281" /></filter><filter
       inkscape:collect="always"
       style="color-interpolation-filters:sRGB"
       id="filter35014"
       x="-0.26837811"
       y="-0.53675623"
       width="1.5367562"
       height="2.0735125"><feGaussianBlur
         inkscape:collect="always"
         stdDeviation="1.1212915"
         id="feGaussianBlur35016" /></filter><filter
       inkscape:collect="always"
       style="color-interpolation-filters:sRGB"
       id="filter35018"
       x="-0.26837811"
       y="-0.53675623"
       width="1.5367562"
       height="2.0735125"><feGaussianBlur
         inkscape:collect="always"
         stdDeviation="1.1212915"
         id="feGaussianBlur35020" /></filter><filter
       inkscape:collect="always"
       style="color-interpolation-filters:sRGB"
       id="filter14500"
       x="-0.16913305"
       y="-0.15768985"
       width="1.3382661"
       height="1.3153797"><feGaussianBlur
         inkscape:collect="always"
         stdDeviation="1.097164"
         id="feGaussianBlur14502" /></filter><filter
       inkscape:collect="always"
       style="color-interpolation-filters:sRGB"
       id="filter14507"
       x="-0.099522388"
       y="-0.10348227"
       width="1.1990448"
       height="1.2069645"><feGaussianBlur
         inkscape:collect="always"
         stdDeviation="1.8429198"
         id="feGaussianBlur14509" /></filter><filter
       inkscape:collect="always"
       style="color-interpolation-filters:sRGB"
       id="filter14513"
       x="-0.21926608"
       y="-0.21067603"
       width="1.4385322"
       height="1.4213521"><feGaussianBlur
         inkscape:collect="always"
         stdDeviation="3.0842401"
         id="feGaussianBlur14515" /></filter><filter
       inkscape:collect="always"
       style="color-interpolation-filters:sRGB"
       id="filter14519"
       x="-0.20481299"
       y="-0.19678924"
       width="1.409626"
       height="1.3935785"><feGaussianBlur
         inkscape:collect="always"
         stdDeviation="2.0862677"
         id="feGaussianBlur14521" /></filter><filter
       inkscape:collect="always"
       style="color-interpolation-filters:sRGB"
       id="filter14525"
       x="-0.044140926"
       y="-0.050996166"
       width="1.0882819"
       height="1.1019923"><feGaussianBlur
         inkscape:collect="always"
         stdDeviation="1.281537"
         id="feGaussianBlur14527" /></filter><filter
       inkscape:collect="always"
       style="color-interpolation-filters:sRGB"
       id="filter14547"
       x="-0.28644943"
       y="-0.38243614"
       width="1.5728989"
       height="1.7648723"><feGaussianBlur
         inkscape:collect="always"
         stdDeviation="0.60677647"
         id="feGaussianBlur14549" /></filter><filter
       inkscape:collect="always"
       style="color-interpolation-filters:sRGB"
       id="filter14763"
       x="-0.27605426"
       y="-0.26603527"
       width="1.5521085"
       height="1.5320705"><feGaussianBlur
         inkscape:collect="always"
         stdDeviation="0.33780025"
         id="feGaussianBlur14765" /></filter><radialGradient
       inkscape:collect="always"
       xlink:href="#linearGradient3719"
       id="radialGradient3721"
       cx="-275.31377"
       cy="553.65485"
       fx="-275.31377"
       fy="553.65485"
       r="74.066933"
       gradientTransform="matrix(1,0,0,0.99800497,-204.33069,100.60286)"
       gradientUnits="userSpaceOnUse" /></defs><g
     inkscape:label="Ebene 1"
     inkscape:groupmode="layer"
     id="layer1"><g
       id="g43903"
       transform="matrix(1.3408295,0,0,1.3408295,93.69649,-472.90774)"
       inkscape:export-filename="Assets\Sprites\Effects\SquareGradient.png"
       inkscape:export-xdpi="146.976"
       inkscape:export-ydpi="146.976"><path
         d="m -265.717,890.934 h -102.22 v 0 -102.22 0 h 102.22 v 0 z"
         style="opacity:1;fill:#fcfcfc;fill-opacity:1;stroke:none;stroke-width:0px;stroke-opacity:0"
         id="path43703" /><path
         d="m -266.201,890.45 h -101.252 v -0.001 -101.251 h 10e-4 101.251 v 10e-4 z"
         style="opacity:1;fill:#f9f9f9;fill-opacity:1;stroke:none;stroke-width:0px;stroke-opacity:0"
         id="path43705" /><path
         d="m -266.686,889.965 h -100.282 v 0 -100.282 0 h 100.282 v 0 z"
         style="opacity:1;fill:#f7f7f7;fill-opacity:1;stroke:none;stroke-width:0px;stroke-opacity:0"
         id="path43707" /><path
         d="m -267.171,889.48 h -99.312 v 0 -99.312 0 h 99.312 v 0 z"
         style="opacity:1;fill:#f4f4f4;fill-opacity:1;stroke:none;stroke-width:0px;stroke-opacity:0"
         id="path43709" /><path
         d="m -267.655,888.996 h -98.344 v 0 -98.344 0 h 98.344 v 0 z"
         style="opacity:1;fill:#f2f2f2;fill-opacity:1;stroke:none;stroke-width:0px;stroke-opacity:0"
         id="path43711" /><path
         d="m -268.14,888.511 h -97.374 v 0 -97.374 0 h 97.374 v 0 z"
         style="opacity:1;fill:#efefef;fill-opacity:1;stroke:none;stroke-width:0px;stroke-opacity:0"
         id="path43713" /><path
         d="m -268.624,888.027 h -96.406 v -0.001 -96.405 h 10e-4 96.405 v 10e-4 z"
         style="opacity:1;fill:#ededed;fill-opacity:1;stroke:none;stroke-width:0px;stroke-opacity:0"
         id="path43715" /><path
         d="m -269.109,887.542 h -95.436 v 0 -95.436 0 h 95.436 v 0 z"
         style="opacity:1;fill:#eaeaea;fill-opacity:1;stroke:none;stroke-width:0px;stroke-opacity:0"
         id="path43717" /><path
         d="m -269.594,887.057 h -94.466 v 0 -94.466 0 h 94.466 v 0 z"
         style="opacity:1;fill:#e8e8e8;fill-opacity:1;stroke:none;stroke-width:0px;stroke-opacity:0"
         id="path43719" /><path
         d="m -270.078,886.573 h -93.498 v -10e-4 -93.497 h 0.001 93.497 v 10e-4 z"
         style="opacity:1;fill:#e5e5e5;fill-opacity:1;stroke:none;stroke-width:0px;stroke-opacity:0"
         id="path43721" /><path
         d="m -270.563,886.088 h -92.528 v 0 -92.528 0 h 92.528 v 0 z"
         style="opacity:1;fill:#e3e3e3;fill-opacity:1;stroke:none;stroke-width:0px;stroke-opacity:0"
         id="path43723" /><path
         d="m -271.048,885.603 h -91.558 v 0 -91.558 0 h 91.558 v 0 z"
         style="opacity:1;fill:#e0e0e0;fill-opacity:1;stroke:none;stroke-width:0px;stroke-opacity:0"
         id="path43725" /><path
         d="m -271.532,885.119 h -90.59 v 0 -90.59 h 0.001 90.589 v 0 z"
         style="opacity:1;fill:#dedede;fill-opacity:1;stroke:none;stroke-width:0px;stroke-opacity:0"
         id="path43727" /><path
         d="m -272.017,884.634 h -89.62 v 0 -89.62 0 h 89.62 v 0 z"
         style="opacity:1;fill:#dbdbdb;fill-opacity:1;stroke:none;stroke-width:0px;stroke-opacity:0"
         id="path43729" /><path
         d="m -272.502,884.149 h -88.651 v 0 -88.651 h 0.001 88.65 v 10e-4 z"
         style="opacity:1;fill:#d9d9d9;fill-opacity:1;stroke:none;stroke-width:0px;stroke-opacity:0"
         id="path43731" /><path
         d="m -272.986,883.665 h -87.682 v 0 -87.682 0 h 87.682 v 0 z"
         style="opacity:1;fill:#d6d6d6;fill-opacity:1;stroke:none;stroke-width:0px;stroke-opacity:0"
         id="path43733" /><path
         d="m -273.471,883.18 h -86.712 v 0 -86.712 0 h 86.712 v 0 z"
         style="opacity:1;fill:#d4d4d4;fill-opacity:1;stroke:none;stroke-width:0px;stroke-opacity:0"
         id="path43735" /><path
         d="m -273.955,882.696 h -85.744 v -10e-4 -85.743 h 0.001 85.743 v 10e-4 z"
         style="opacity:1;fill:#d1d1d1;fill-opacity:1;stroke:none;stroke-width:0px;stroke-opacity:0"
         id="path43737" /><path
         d="m -274.44,882.211 h -84.774 v 0 -84.774 0 h 84.774 v 0 z"
         style="opacity:1;fill:#cfcfcf;fill-opacity:1;stroke:none;stroke-width:0px;stroke-opacity:0"
         id="path43739" /><path
         d="m -274.925,881.726 h -83.804 v 0 -83.804 0 h 83.804 v 0 z"
         style="opacity:1;fill:#cccccc;fill-opacity:1;stroke:none;stroke-width:0px;stroke-opacity:0"
         id="path43741" /><path
         d="m -275.409,881.242 h -82.836 v -10e-4 -82.835 h 10e-4 82.835 v 0 z"
         style="opacity:1;fill:#c9c9c9;fill-opacity:1;stroke:none;stroke-width:0px;stroke-opacity:0"
         id="path43743" /><path
         d="m -275.894,880.757 h -81.866 v 0 -81.866 0 h 81.866 v 0 z"
         style="opacity:1;fill:#c7c7c7;fill-opacity:1;stroke:none;stroke-width:0px;stroke-opacity:0"
         id="path43745" /><path
         d="m -276.379,880.272 h -80.897 v 0 -80.897 h 0.001 80.896 v 10e-4 z"
         style="opacity:1;fill:#c4c4c4;fill-opacity:1;stroke:none;stroke-width:0px;stroke-opacity:0"
         id="path43747" /><path
         d="m -276.863,879.788 h -79.928 v 0 -79.928 h 10e-4 79.927 v 0 z"
         style="opacity:1;fill:#c2c2c2;fill-opacity:1;stroke:none;stroke-width:0px;stroke-opacity:0"
         id="path43749" /><path
         d="m -277.348,879.303 h -78.958 v 0 -78.958 0 h 78.958 v 0 z"
         style="opacity:1;fill:#bfbfbf;fill-opacity:1;stroke:none;stroke-width:0px;stroke-opacity:0"
         id="path43751" /><path
         d="m -277.832,878.819 h -77.99 v -10e-4 -77.989 h 10e-4 77.989 v 0.001 z"
         style="opacity:1;fill:#bdbdbd;fill-opacity:1;stroke:none;stroke-width:0px;stroke-opacity:0"
         id="path43753" /><path
         d="m -278.317,878.334 h -77.02 v 0 -77.02 0 h 77.02 v 0 z"
         style="opacity:1;fill:#bababa;fill-opacity:1;stroke:none;stroke-width:0px;stroke-opacity:0"
         id="path43755" /><path
         d="m -278.802,877.849 h -76.05 v 0 -76.05 0 h 76.05 v 0 z"
         style="opacity:1;fill:#b8b8b8;fill-opacity:1;stroke:none;stroke-width:0px;stroke-opacity:0"
         id="path43757" /><path
         d="m -279.286,877.365 h -75.082 v -10e-4 -75.081 h 10e-4 75.081 v 0 z"
         style="opacity:1;fill:#b5b5b5;fill-opacity:1;stroke:none;stroke-width:0px;stroke-opacity:0"
         id="path43759" /><path
         d="m -279.771,876.88 h -74.112 v 0 -74.112 0 h 74.112 v 0 z"
         style="opacity:1;fill:#b3b3b3;fill-opacity:1;stroke:none;stroke-width:0px;stroke-opacity:0"
         id="path43761" /><path
         d="m -280.256,876.395 h -73.143 v 0 -73.143 h 10e-4 73.142 v 0.001 z"
         style="opacity:1;fill:#b0b0b0;fill-opacity:1;stroke:none;stroke-width:0px;stroke-opacity:0"
         id="path43763" /><path
         d="m -280.74,875.911 h -72.174 v 0 -72.174 h 10e-4 72.173 v 0 z"
         style="opacity:1;fill:#aeaeae;fill-opacity:1;stroke:none;stroke-width:0px;stroke-opacity:0"
         id="path43765" /><path
         d="m -281.225,875.426 h -71.204 v 0 -71.204 0 h 71.204 v 0 z"
         style="opacity:1;fill:#ababab;fill-opacity:1;stroke:none;stroke-width:0px;stroke-opacity:0"
         id="path43767" /><path
         d="m -281.71,874.941 h -70.235 v 0 -70.235 h 10e-4 70.234 v 10e-4 z"
         style="opacity:1;fill:#a9a9a9;fill-opacity:1;stroke:none;stroke-width:0px;stroke-opacity:0"
         id="path43769" /><path
         d="m -282.194,874.457 h -69.266 v 0 -69.266 0 h 69.266 v 0 z"
         style="opacity:1;fill:#a6a6a6;fill-opacity:1;stroke:none;stroke-width:0px;stroke-opacity:0"
         id="path43771" /><path
         d="m -282.679,873.972 h -68.296 v 0 -68.296 0 h 68.296 v 0 z"
         style="opacity:1;fill:#a4a4a4;fill-opacity:1;stroke:none;stroke-width:0px;stroke-opacity:0"
         id="path43773" /><path
         d="m -283.163,873.488 h -67.328 v -0.001 -67.327 h 10e-4 67.327 v 0 z"
         style="opacity:1;fill:#a1a1a1;fill-opacity:1;stroke:none;stroke-width:0px;stroke-opacity:0"
         id="path43775" /><path
         d="m -283.648,873.003 h -66.358 v 0 -66.358 0 h 66.358 v 0 z"
         style="opacity:1;fill:#9f9f9f;fill-opacity:1;stroke:none;stroke-width:0px;stroke-opacity:0"
         id="path43777" /><path
         d="m -284.133,872.518 h -65.389 v 0 -65.389 h 10e-4 65.388 v 10e-4 z"
         style="opacity:1;fill:#9c9c9c;fill-opacity:1;stroke:none;stroke-width:0px;stroke-opacity:0"
         id="path43779" /><path
         d="m -284.617,872.034 h -64.42 v -10e-4 -64.419 h 10e-4 64.419 v 0 z"
         style="opacity:1;fill:#9a9a9a;fill-opacity:1;stroke:none;stroke-width:0px;stroke-opacity:0"
         id="path43781" /><path
         d="m -285.102,871.549 h -63.45 v 0 -63.45 0 h 63.45 v 0 z"
         style="opacity:1;fill:#979797;fill-opacity:1;stroke:none;stroke-width:0px;stroke-opacity:0"
         id="path43783" /><path
         d="m -285.587,871.064 h -62.481 v 0 -62.481 h 10e-4 62.48 v 10e-4 z"
         style="opacity:1;fill:#949494;fill-opacity:1;stroke:none;stroke-width:0px;stroke-opacity:0"
         id="path43785" /><path
         d="m -286.071,870.58 h -61.512 v 0 -61.512 h 0.001 61.511 v 0 z"
         style="opacity:1;fill:#929292;fill-opacity:1;stroke:none;stroke-width:0px;stroke-opacity:0"
         id="path43787" /><path
         d="m -286.556,870.095 h -60.542 v 0 -60.542 0 h 60.542 v 0 z"
         style="opacity:1;fill:#8f8f8f;fill-opacity:1;stroke:none;stroke-width:0px;stroke-opacity:0"
         id="path43789" /><path
         d="m -287.041,869.61 h -59.573 v 0 -59.573 h 10e-4 59.572 v 0 z"
         style="opacity:1;fill:#8d8d8d;fill-opacity:1;stroke:none;stroke-width:0px;stroke-opacity:0"
         id="path43791" /><path
         d="m -287.525,869.126 h -58.604 v 0 -58.604 0 h 58.604 v 0 z"
         style="opacity:1;fill:#8a8a8a;fill-opacity:1;stroke:none;stroke-width:0px;stroke-opacity:0"
         id="path43793" /><path
         d="m -288.01,868.641 h -57.634 v 0 -57.634 0 h 57.634 v 0 z"
         style="opacity:1;fill:#888888;fill-opacity:1;stroke:none;stroke-width:0px;stroke-opacity:0"
         id="path43795" /><path
         d="m -288.494,868.157 h -56.666 v -0.001 -56.665 h 0.001 56.665 v 0 z"
         style="opacity:1;fill:#858585;fill-opacity:1;stroke:none;stroke-width:0px;stroke-opacity:0"
         id="path43797" /><path
         d="m -288.979,867.672 h -55.696 v 0 -55.696 0 h 55.696 v 0 z"
         style="opacity:1;fill:#838383;fill-opacity:1;stroke:none;stroke-width:0px;stroke-opacity:0"
         id="path43799" /><path
         d="m -289.464,867.187 h -54.727 v 0 -54.727 h 10e-4 54.726 v 10e-4 z"
         style="opacity:1;fill:#808080;fill-opacity:1;stroke:none;stroke-width:0px;stroke-opacity:0"
         id="path43801" /><path
         d="m -289.948,866.703 h -53.758 v 0 -53.758 h 0.001 53.757 v 0 z"
         style="opacity:1;fill:#7e7e7e;fill-opacity:1;stroke:none;stroke-width:0px;stroke-opacity:0"
         id="path43803" /><path
         d="m -290.433,866.218 h -52.788 v 0 -52.788 0 h 52.788 v 0 z"
         style="opacity:1;fill:#7b7b7b;fill-opacity:1;stroke:none;stroke-width:0px;stroke-opacity:0"
         id="path43805" /><path
         d="m -290.918,865.733 h -51.819 v 0 -51.819 h 0.001 51.818 v 0 z"
         style="opacity:1;fill:#797979;fill-opacity:1;stroke:none;stroke-width:0px;stroke-opacity:0"
         id="path43807" /><path
         d="m -291.402,865.249 h -50.85 v 0 -50.85 h 0.001 50.849 v 0 z"
         style="opacity:1;fill:#767676;fill-opacity:1;stroke:none;stroke-width:0px;stroke-opacity:0"
         id="path43809" /><path
         d="m -291.887,864.764 h -49.88 v 0 -49.88 0 h 49.88 v 0 z"
         style="opacity:1;fill:#747474;fill-opacity:1;stroke:none;stroke-width:0px;stroke-opacity:0"
         id="path43811" /><path
         d="m -292.371,864.28 h -48.912 v -10e-4 -48.911 h 0.001 48.911 v 0 z"
         style="opacity:1;fill:#717171;fill-opacity:1;stroke:none;stroke-width:0px;stroke-opacity:0"
         id="path43813" /><path
         d="m -292.856,863.795 h -47.942 v 0 -47.942 0 h 47.942 v 0 z"
         style="opacity:1;fill:#6f6f6f;fill-opacity:1;stroke:none;stroke-width:0px;stroke-opacity:0"
         id="path43815" /><path
         d="m -293.341,863.31 h -46.973 v 0 -46.973 h 0.001 46.972 v 10e-4 z"
         style="opacity:1;fill:#6c6c6c;fill-opacity:1;stroke:none;stroke-width:0px;stroke-opacity:0"
         id="path43817" /><path
         d="m -293.825,862.826 h -46.004 v -10e-4 -46.003 h 0.001 46.003 v 0 z"
         style="opacity:1;fill:#6a6a6a;fill-opacity:1;stroke:none;stroke-width:0px;stroke-opacity:0"
         id="path43819" /><path
         d="m -294.31,862.341 h -45.034 v 0 -45.034 0 h 45.034 v 0 z"
         style="opacity:1;fill:#676767;fill-opacity:1;stroke:none;stroke-width:0px;stroke-opacity:0"
         id="path43821" /><path
         d="m -294.795,861.856 h -44.065 v 0 -44.065 h 0.001 44.064 v 0 z"
         style="opacity:1;fill:#646464;fill-opacity:1;stroke:none;stroke-width:0px;stroke-opacity:0"
         id="path43823" /><path
         d="m -295.279,861.372 h -43.096 v 0 -43.096 h 10e-4 43.095 v 0 z"
         style="opacity:1;fill:#626262;fill-opacity:1;stroke:none;stroke-width:0px;stroke-opacity:0"
         id="path43825" /><path
         d="m -295.764,860.887 h -42.126 v 0 -42.126 0 h 42.126 v 0 z"
         style="opacity:1;fill:#5f5f5f;fill-opacity:1;stroke:none;stroke-width:0px;stroke-opacity:0"
         id="path43827" /><path
         d="m -296.249,860.402 h -41.157 v 0 -41.157 h 0.001 41.156 v 0 z"
         style="opacity:1;fill:#5d5d5d;fill-opacity:1;stroke:none;stroke-width:0px;stroke-opacity:0"
         id="path43829" /><path
         d="m -296.733,859.918 h -40.188 v 0 -40.188 h 10e-4 40.187 v 0 z"
         style="opacity:1;fill:#5a5a5a;fill-opacity:1;stroke:none;stroke-width:0px;stroke-opacity:0"
         id="path43831" /><path
         d="m -297.218,859.433 h -39.219 v 0 -39.219 h 0.001 39.218 v 10e-4 z"
         style="opacity:1;fill:#585858;fill-opacity:1;stroke:none;stroke-width:0px;stroke-opacity:0"
         id="path43833" /><path
         d="m -297.702,858.949 h -38.25 v -10e-4 -38.249 h 10e-4 38.249 v 0 z"
         style="opacity:1;fill:#555555;fill-opacity:1;stroke:none;stroke-width:0px;stroke-opacity:0"
         id="path43835" /><path
         d="m -298.187,858.464 h -37.28 v 0 -37.28 0 h 37.28 v 0 z"
         style="opacity:1;fill:#535353;fill-opacity:1;stroke:none;stroke-width:0px;stroke-opacity:0"
         id="path43837" /><path
         d="m -298.672,857.979 h -36.311 v 0 -36.311 h 10e-4 36.31 v 0 z"
         style="opacity:1;fill:#505050;fill-opacity:1;stroke:none;stroke-width:0px;stroke-opacity:0"
         id="path43839" /><path
         d="m -299.156,857.495 h -35.342 v 0 -35.342 h 10e-4 35.341 v 0 z"
         style="opacity:1;fill:#4e4e4e;fill-opacity:1;stroke:none;stroke-width:0px;stroke-opacity:0"
         id="path43841" /><path
         d="m -299.641,857.01 h -34.372 v 0 -34.372 0 h 34.372 v 0 z"
         style="opacity:1;fill:#4b4b4b;fill-opacity:1;stroke:none;stroke-width:0px;stroke-opacity:0"
         id="path43843" /><path
         d="m -300.126,856.525 h -33.403 v 0 -33.403 h 10e-4 33.402 v 0 z"
         style="opacity:1;fill:#494949;fill-opacity:1;stroke:none;stroke-width:0px;stroke-opacity:0"
         id="path43845" /><path
         d="m -300.61,856.041 h -32.434 v 0 -32.434 h 10e-4 32.433 v 0 z"
         style="opacity:1;fill:#464646;fill-opacity:1;stroke:none;stroke-width:0px;stroke-opacity:0"
         id="path43847" /><path
         d="m -301.095,855.556 h -31.465 v 0 -31.465 h 10e-4 31.464 v 10e-4 z"
         style="opacity:1;fill:#444444;fill-opacity:1;stroke:none;stroke-width:0px;stroke-opacity:0"
         id="path43849" /><path
         d="m -301.58,855.071 h -30.495 v 0 -30.495 h 10e-4 30.494 v 0 z"
         style="opacity:1;fill:#414141;fill-opacity:1;stroke:none;stroke-width:0px;stroke-opacity:0"
         id="path43851" /><path
         d="m -302.064,854.587 h -29.526 v 0 -29.526 h 10e-4 29.525 v 0 z"
         style="opacity:1;fill:#3f3f3f;fill-opacity:1;stroke:none;stroke-width:0px;stroke-opacity:0"
         id="path43853" /><path
         d="m -302.549,854.102 h -28.557 v 0 -28.557 h 10e-4 28.556 v 0 z"
         style="opacity:1;fill:#3c3c3c;fill-opacity:1;stroke:none;stroke-width:0px;stroke-opacity:0"
         id="path43855" /><path
         d="m -303.033,853.618 h -27.588 v 0 -27.588 h 10e-4 27.587 v 0 z"
         style="opacity:1;fill:#3a3a3a;fill-opacity:1;stroke:none;stroke-width:0px;stroke-opacity:0"
         id="path43857" /><path
         d="m -303.518,853.133 h -26.618 v 0 -26.618 0 h 26.618 v 0 z"
         style="opacity:1;fill:#373737;fill-opacity:1;stroke:none;stroke-width:0px;stroke-opacity:0"
         id="path43859" /><path
         d="m -304.003,852.648 h -25.649 v 0 -25.649 h 10e-4 25.648 v 0 z"
         style="opacity:1;fill:#353535;fill-opacity:1;stroke:none;stroke-width:0px;stroke-opacity:0"
         id="path43861" /><path
         d="m -304.487,852.164 h -24.68 v 0 -24.68 h 10e-4 24.679 v 0 z"
         style="opacity:1;fill:#323232;fill-opacity:1;stroke:none;stroke-width:0px;stroke-opacity:0"
         id="path43863" /><path
         d="m -304.972,851.679 h -23.711 v 0 -23.711 h 10e-4 23.71 v 0.001 z"
         style="opacity:1;fill:#2f2f2f;fill-opacity:1;stroke:none;stroke-width:0px;stroke-opacity:0"
         id="path43865" /><path
         d="m -305.457,851.194 h -22.741 v 0 -22.741 h 10e-4 22.74 v 0 z"
         style="opacity:1;fill:#2d2d2d;fill-opacity:1;stroke:none;stroke-width:0px;stroke-opacity:0"
         id="path43867" /><path
         d="m -305.941,850.71 h -21.772 v 0 -21.772 h 0.001 21.771 v 0 z"
         style="opacity:1;fill:#2a2a2a;fill-opacity:1;stroke:none;stroke-width:0px;stroke-opacity:0"
         id="path43869" /><path
         d="m -306.426,850.225 h -20.803 v 0 -20.803 h 10e-4 20.802 v 0 z"
         style="opacity:1;fill:#282828;fill-opacity:1;stroke:none;stroke-width:0px;stroke-opacity:0"
         id="path43871" /><path
         d="m -306.91,849.741 h -19.834 v -10e-4 -19.833 h 0.001 19.833 v 0 z"
         style="opacity:1;fill:#252525;fill-opacity:1;stroke:none;stroke-width:0px;stroke-opacity:0"
         id="path43873" /><path
         d="m -307.395,849.256 h -18.864 v 0 -18.864 0 h 18.864 v 0 z"
         style="opacity:1;fill:#232323;fill-opacity:1;stroke:none;stroke-width:0px;stroke-opacity:0"
         id="path43875" /><path
         d="m -307.88,848.771 h -17.895 v 0 -17.895 h 10e-4 17.894 v 0 z"
         style="opacity:1;fill:#202020;fill-opacity:1;stroke:none;stroke-width:0px;stroke-opacity:0"
         id="path43877" /><path
         d="m -308.364,848.287 h -16.926 v 0 -16.926 h 0.001 16.925 v 0 z"
         style="opacity:1;fill:#1e1e1e;fill-opacity:1;stroke:none;stroke-width:0px;stroke-opacity:0"
         id="path43879" /><path
         d="m -308.849,847.802 h -15.957 v 0 -15.957 h 10e-4 15.956 v 10e-4 z"
         style="opacity:1;fill:#1b1b1b;fill-opacity:1;stroke:none;stroke-width:0px;stroke-opacity:0"
         id="path43881" /><path
         d="m -309.334,847.317 h -14.987 v 0 -14.987 h 0.001 14.986 v 0 z"
         style="opacity:1;fill:#191919;fill-opacity:1;stroke:none;stroke-width:0px;stroke-opacity:0"
         id="path43883" /><path
         d="m -309.818,846.833 h -14.018 v 0 -14.018 h 0.001 14.017 v 0 z"
         style="opacity:1;fill:#161616;fill-opacity:1;stroke:none;stroke-width:0px;stroke-opacity:0"
         id="path43885" /><path
         d="m -310.303,846.348 h -13.049 v 0 -13.049 h 10e-4 13.048 v 0 z"
         style="opacity:1;fill:#141414;fill-opacity:1;stroke:none;stroke-width:0px;stroke-opacity:0"
         id="path43887" /><path
         d="m -310.788,845.863 h -12.079 v 0 -12.079 h 0.001 12.078 v 0 z"
         style="opacity:1;fill:#111111;fill-opacity:1;stroke:none;stroke-width:0px;stroke-opacity:0"
         id="path43889" /><path
         d="m -311.272,845.379 h -11.11 v 0 -11.11 h 0.001 11.109 v 0 z"
         style="opacity:1;fill:#0f0f0f;fill-opacity:1;stroke:none;stroke-width:0px;stroke-opacity:0"
         id="path43891" /><path
         d="m -311.757,844.894 h -10.141 v 0 -10.141 h 0.001 10.14 v 0 z"
         style="opacity:1;fill:#0c0c0c;fill-opacity:1;stroke:none;stroke-width:0px;stroke-opacity:0"
         id="path43893" /><path
         d="m -312.241,844.41 h -9.172 v 0 -9.172 h 0.001 9.171 v 0 z"
         style="opacity:1;fill:#0a0a0a;fill-opacity:1;stroke:none;stroke-width:0px;stroke-opacity:0"
         id="path43895" /><path
         d="m -312.726,843.925 h -8.202 v 0 -8.202 0 h 8.202 v 0 z"
         style="opacity:1;fill:#070707;fill-opacity:1;stroke:none;stroke-width:0px;stroke-opacity:0"
         id="path43897" /><path
         d="m -313.211,843.44 h -7.233 v 0 -7.233 h 0.001 7.232 v 0 z"
         style="opacity:1;fill:#050505;fill-opacity:1;stroke:none;stroke-width:0px;stroke-opacity:0"
         id="path43899" /><path
         d="m -313.695,842.956 h -6.264 v 0 -6.264 h 10e-4 6.263 v 0 z"
         style="opacity:1;fill:#020202;fill-opacity:1;stroke:none;stroke-width:0px;stroke-opacity:0"
         id="path43901" /></g></g></svg>
